  0
SECTION
  2
HEADER
  9
$ACADVER
  1
AC1032
  9
$ACADMAINTVER
 90
      255
  9
$DWGCODEPAGE
  3
ANSI_1252
  9
$LASTSAVEDBY
  1
Takuya
  9
$REQUIREDVERSIONS
160
                 0
  9
$INSBASE
 10
0.0
 20
0.0
 30
0.0
  9
$EXTMIN
 10
-3.062258346563567
 20
-93.64921787405
 30
0.0
  9
$EXTMAX
 10
255.0
 20
328.0
 30
0.0
  9
$LIMMIN
 10
0.0
 20
0.0
  9
$LIMMAX
 10
12.0
 20
9.0
  9
$ORTHOMODE
 70
     0
  9
$REGENMODE
 70
     1
  9
$FILLMODE
 70
     1
  9
$QTEXTMODE
 70
     0
  9
$MIRRTEXT
 70
     0
  9
$LTSCALE
 40
1.0
  9
$ATTMODE
 70
     1
  9
$TEXTSIZE
 40
0.2
  9
$TRACEWID
 40
0.05
  9
$TEXTSTYLE
  7
Standard
  9
$CLAYER
  8
0
  9
$CELTYPE
  6
CONTINUOUS
  9
$CECOLOR
 62
   256
  9
$CELTSCALE
 40
1.0
  9
$DISPSILH
 70
     0
  9
$DIMSCALE
 40
1.0
  9
$DIMASZ
 40
0.18
  9
$DIMEXO
 40
0.0625
  9
$DIMDLI
 40
0.38
  9
$DIMRND
 40
0.0
  9
$DIMDLE
 40
0.0
  9
$DIMEXE
 40
0.18
  9
$DIMTP
 40
0.0
  9
$DIMTM
 40
0.0
  9
$DIMTXT
 40
0.18
  9
$DIMCEN
 40
0.09
  9
$DIMTSZ
 40
0.0
  9
$DIMTOL
 70
     0
  9
$DIMLIM
 70
     0
  9
$DIMTIH
 70
     1
  9
$DIMTOH
 70
     1
  9
$DIMSE1
 70
     0
  9
$DIMSE2
 70
     0
  9
$DIMTAD
 70
     0
  9
$DIMZIN
 70
     0
  9
$DIMBLK
  1

  9
$DIMASO
 70
     1
  9
$DIMSHO
 70
     1
  9
$DIMPOST
  1

  9
$DIMAPOST
  1

  9
$DIMALT
 70
     0
  9
$DIMALTD
 70
     2
  9
$DIMALTF
 40
25.4
  9
$DIMLFAC
 40
1.0
  9
$DIMTOFL
 70
     0
  9
$DIMTVP
 40
0.0
  9
$DIMTIX
 70
     0
  9
$DIMSOXD
 70
     0
  9
$DIMSAH
 70
     0
  9
$DIMBLK1
  1

  9
$DIMBLK2
  1

  9
$DIMSTYLE
  2
Standard
  9
$DIMCLRD
 70
     0
  9
$DIMCLRE
 70
     0
  9
$DIMCLRT
 70
     0
  9
$DIMTFAC
 40
1.0
  9
$DIMGAP
 40
0.09
  9
$DIMJUST
 70
     0
  9
$DIMSD1
 70
     0
  9
$DIMSD2
 70
     0
  9
$DIMTOLJ
 70
     1
  9
$DIMTZIN
 70
     0
  9
$DIMALTZ
 70
     0
  9
$DIMALTTZ
 70
     0
  9
$DIMUPT
 70
     0
  9
$DIMDEC
 70
     4
  9
$DIMTDEC
 70
     4
  9
$DIMALTU
 70
     2
  9
$DIMALTTD
 70
     2
  9
$DIMTXSTY
  7
Standard
  9
$DIMAUNIT
 70
     0
  9
$DIMADEC
 70
     0
  9
$DIMALTRND
 40
0.0
  9
$DIMAZIN
 70
     0
  9
$DIMDSEP
 70
    46
  9
$DIMATFIT
 70
     3
  9
$DIMFRAC
 70
     0
  9
$DIMLDRBLK
  1

  9
$DIMLUNIT
 70
     2
  9
$DIMLWD
 70
    -2
  9
$DIMLWE
 70
    -2
  9
$DIMTMOVE
 70
     0
  9
$DIMFXL
 40
1.0
  9
$DIMFXLON
 70
     0
  9
$DIMJOGANG
 40
0.7853981633974483
  9
$DIMTFILL
 70
     0
  9
$DIMTFILLCLR
 70
     0
  9
$DIMARCSYM
 70
     0
  9
$DIMLTYPE
  6

  9
$DIMLTEX1
  6

  9
$DIMLTEX2
  6

  9
$DIMTXTDIRECTION
 70
     0
  9
$LUNITS
 70
     2
  9
$LUPREC
 70
     4
  9
$SKETCHINC
 40
0.1
  9
$FILLETRAD
 40
0.0
  9
$AUNITS
 70
     0
  9
$AUPREC
 70
     0
  9
$MENU
  1
.
  9
$ELEVATION
 40
0.0
  9
$PELEVATION
 40
0.0
  9
$THICKNESS
 40
0.0
  9
$LIMCHECK
 70
     0
  9
$CHAMFERA
 40
0.0
  9
$CHAMFERB
 40
0.0
  9
$CHAMFERC
 40
0.0
  9
$CHAMFERD
 40
0.0
  9
$SKPOLY
 70
     0
  9
$TDCREATE
 40
2460069.458541667
  9
$TDUCREATE
 40
2460069.625208333
  9
$TDUPDATE
 40
2460073.397534722
  9
$TDUUPDATE
 40
2460073.564201389
  9
$TDINDWG
 40
0.0145949074
  9
$TDUSRTIMER
 40
0.0145949074
  9
$USRTIMER
 70
     1
  9
$ANGBASE
 50
0.0
  9
$ANGDIR
 70
     0
  9
$PDMODE
 70
     0
  9
$PDSIZE
 40
0.0
  9
$PLINEWID
 40
0.0
  9
$SPLFRAME
 70
     0
  9
$SPLINETYPE
 70
     6
  9
$SPLINESEGS
 70
     8
  9
$HANDSEED
  5
304
  9
$SURFTAB1
 70
     6
  9
$SURFTAB2
 70
     6
  9
$SURFTYPE
 70
     6
  9
$SURFU
 70
     6
  9
$SURFV
 70
     6
  9
$UCSBASE
  2

  9
$UCSNAME
  2

  9
$UCSORG
 10
0.0
 20
0.0
 30
0.0
  9
$UCSXDIR
 10
1.0
 20
0.0
 30
0.0
  9
$UCSYDIR
 10
0.0
 20
1.0
 30
0.0
  9
$UCSORTHOREF
  2

  9
$UCSORTHOVIEW
 70
     0
  9
$UCSORGTOP
 10
0.0
 20
0.0
 30
0.0
  9
$UCSORGBOTTOM
 10
0.0
 20
0.0
 30
0.0
  9
$UCSORGLEFT
 10
0.0
 20
0.0
 30
0.0
  9
$UCSORGRIGHT
 10
0.0
 20
0.0
 30
0.0
  9
$UCSORGFRONT
 10
0.0
 20
0.0
 30
0.0
  9
$UCSORGBACK
 10
0.0
 20
0.0
 30
0.0
  9
$PUCSBASE
  2

  9
$PUCSNAME
  2

  9
$PUCSORG
 10
0.0
 20
0.0
 30
0.0
  9
$PUCSXDIR
 10
1.0
 20
0.0
 30
0.0
  9
$PUCSYDIR
 10
0.0
 20
1.0
 30
0.0
  9
$PUCSORTHOREF
  2

  9
$PUCSORTHOVIEW
 70
     0
  9
$PUCSORGTOP
 10
0.0
 20
0.0
 30
0.0
  9
$PUCSORGBOTTOM
 10
0.0
 20
0.0
 30
0.0
  9
$PUCSORGLEFT
 10
0.0
 20
0.0
 30
0.0
  9
$PUCSORGRIGHT
 10
0.0
 20
0.0
 30
0.0
  9
$PUCSORGFRONT
 10
0.0
 20
0.0
 30
0.0
  9
$PUCSORGBACK
 10
0.0
 20
0.0
 30
0.0
  9
$USERI1
 70
     0
  9
$USERI2
 70
     0
  9
$USERI3
 70
     0
  9
$USERI4
 70
     0
  9
$USERI5
 70
     0
  9
$USERR1
 40
0.0
  9
$USERR2
 40
0.0
  9
$USERR3
 40
0.0
  9
$USERR4
 40
0.0
  9
$USERR5
 40
0.0
  9
$WORLDVIEW
 70
     1
  9
$SHADEDGE
 70
     3
  9
$SHADEDIF
 70
    70
  9
$TILEMODE
 70
     1
  9
$MAXACTVP
 70
    64
  9
$PINSBASE
 10
0.0
 20
0.0
 30
0.0
  9
$PLIMCHECK
 70
     0
  9
$PEXTMIN
 10
1.000000000000000E+20
 20
1.000000000000000E+20
 30
1.000000000000000E+20
  9
$PEXTMAX
 10
-1.000000000000000E+20
 20
-1.000000000000000E+20
 30
-1.000000000000000E+20
  9
$PLIMMIN
 10
0.0
 20
0.0
  9
$PLIMMAX
 10
12.0
 20
9.0
  9
$UNITMODE
 70
     0
  9
$VISRETAIN
 70
     1
  9
$PLINEGEN
 70
     0
  9
$PSLTSCALE
 70
     1
  9
$TREEDEPTH
 70
  3020
  9
$CMLSTYLE
  2
Standard
  9
$CMLJUST
 70
     0
  9
$CMLSCALE
 40
1.0
  9
$PROXYGRAPHICS
 70
     1
  9
$MEASUREMENT
 70
     0
  9
$CELWEIGHT
370
    -1
  9
$ENDCAPS
280
     0
  9
$JOINSTYLE
280
     0
  9
$LWDISPLAY
290
     0
  9
$INSUNITS
 70
     4
  9
$HYPERLINKBASE
  1

  9
$STYLESHEET
  1

  9
$XEDIT
290
     1
  9
$CEPSNTYPE
380
     0
  9
$PSTYLEMODE
290
     1
  9
$FINGERPRINTGUID
  2
{77D0B936-68F8-0448-9BCA-1183DC4A711E}
  9
$VERSIONGUID
  2
{6BDCF6AD-213A-834E-B8C7-BB31EBD6553D}
  9
$EXTNAMES
290
     1
  9
$PSVPSCALE
 40
0.0
  9
$OLESTARTUP
290
     0
  9
$SORTENTS
280
   127
  9
$INDEXCTL
280
     0
  9
$HIDETEXT
280
     0
  9
$XCLIPFRAME
280
     2
  9
$HALOGAP
280
     0
  9
$OBSCOLOR
 70
   257
  9
$OBSLTYPE
280
     0
  9
$INTERSECTIONDISPLAY
280
     0
  9
$INTERSECTIONCOLOR
 70
   257
  9
$DIMASSOC
280
     1
  9
$PROJECTNAME
  1

  9
$CAMERADISPLAY
290
     0
  9
$LENSLENGTH
 40
50.0
  9
$CAMERAHEIGHT
 40
0.0
  9
$STEPSPERSEC
 40
2.0
  9
$STEPSIZE
 40
6.0
  9
$3DDWFPREC
 40
2.0
  9
$PSOLWIDTH
 40
0.25
  9
$PSOLHEIGHT
 40
4.0
  9
$LOFTANG1
 40
1.570796326794896
  9
$LOFTANG2
 40
1.570796326794896
  9
$LOFTMAG1
 40
0.0
  9
$LOFTMAG2
 40
0.0
  9
$LOFTPARAM
 70
     7
  9
$LOFTNORMALS
280
     1
  9
$LATITUDE
 40
37.795
  9
$LONGITUDE
 40
-122.394
  9
$NORTHDIRECTION
 40
0.0
  9
$TIMEZONE
 70
 -8000
  9
$LIGHTGLYPHDISPLAY
280
     1
  9
$TILEMODELIGHTSYNCH
280
     1
  9
$CMATERIAL
347
11
  9
$SOLIDHIST
280
     0
  9
$SHOWHIST
280
     1
  9
$DWFFRAME
280
     2
  9
$DGNFRAME
280
     0
  9
$REALWORLDSCALE
290
     1
  9
$INTERFERECOLOR
 62
     1
  9
$INTERFEREOBJVS
345
33
  9
$INTERFEREVPVS
346
30
  9
$CSHADOW
280
     0
  9
$SHADOWPLANELOCATION
 40
0.0
  0
ENDSEC
  0
SECTION
  2
CLASSES
  0
CLASS
  1
ACDBDICTIONARYWDFLT
  2
AcDbDictionaryWithDefault
  3
ObjectDBX Classes
 90
        0
 91
        1
280
     0
281
     0
  0
CLASS
  1
MATERIAL
  2
AcDbMaterial
  3
ObjectDBX Classes
 90
     1153
 91
        3
280
     0
281
     0
  0
CLASS
  1
VISUALSTYLE
  2
AcDbVisualStyle
  3
ObjectDBX Classes
 90
     4095
 91
       24
280
     0
281
     0
  0
CLASS
  1
SCALE
  2
AcDbScale
  3
ObjectDBX Classes
 90
     1153
 91
       17
280
     0
281
     0
  0
CLASS
  1
TABLESTYLE
  2
AcDbTableStyle
  3
ObjectDBX Classes
 90
     4095
 91
        1
280
     0
281
     0
  0
CLASS
  1
MLEADERSTYLE
  2
AcDbMLeaderStyle
  3
ACDB_MLEADERSTYLE_CLASS
 90
     4095
 91
        1
280
     0
281
     0
  0
CLASS
  1
ACDBSECTIONVIEWSTYLE
  2
AcDbSectionViewStyle
  3
ObjectDBX Classes
 90
     1025
 91
        1
280
     0
281
     0
  0
CLASS
  1
ACDBDETAILVIEWSTYLE
  2
AcDbDetailViewStyle
  3
ObjectDBX Classes
 90
     1025
 91
        1
280
     0
281
     0
  0
CLASS
  1
SORTENTSTABLE
  2
AcDbSortentsTable
  3
ObjectDBX Classes
 90
        0
 91
        0
280
     0
281
     0
  0
CLASS
  1
DICTIONARYVAR
  2
AcDbDictionaryVar
  3
ObjectDBX Classes
 90
        0
 91
        9
280
     0
281
     0
  0
CLASS
  1
CELLSTYLEMAP
  2
AcDbCellStyleMap
  3
ObjectDBX Classes
 90
     1152
 91
        1
280
     0
281
     0
  0
ENDSEC
  0
SECTION
  2
TABLES
  0
TABLE
  2
VPORT
  5
8
330
0
100
AcDbSymbolTable
 70
     1
  0
VPORT
  5
74
330
8
100
AcDbSymbolTableRecord
100
AcDbViewportTableRecord
  2
*Active
 70
     0
 10
0.0
 20
0.0
 11
1.0
 21
1.0
 12
123.9612889806606
 22
45.46233974077949
 13
0.0
 23
0.0
 14
1.0
 24
1.0
 15
0.0
 25
0.0
 16
0.0
 26
0.0
 36
1.0
 17
0.0
 27
0.0
 37
0.0
 40
1280.921980125806
 41
1.436619718309859
 42
50.0
 43
0.0
 44
0.0
 50
0.0
 51
0.0
 71
     0
 72
   100
 73
     1
 74
     1
 75
     0
 76
     0
 77
     0
 78
     0
281
     0
 65
     1
110
0.0
120
0.0
130
0.0
111
1.0
121
0.0
131
0.0
112
0.0
122
1.0
132
0.0
 79
     0
146
0.0
348
2F
 60
     3
 61
     5
292
     1
282
     1
141
0.0
142
0.0
 63
   250
421
  3355443
1001
ACAD_NAV_VCDISPLAY
1070
     3
  0
ENDTAB
  0
TABLE
  2
LTYPE
  5
5
330
0
100
AcDbSymbolTable
 70
     1
  0
LTYPE
  5
5A
330
5
100
AcDbSymbolTableRecord
100
AcDbLinetypeTableRecord
  2
ByBlock
 70
     0
  3

 72
    65
 73
     0
 40
0.0
  0
LTYPE
  5
5B
330
5
100
AcDbSymbolTableRecord
100
AcDbLinetypeTableRecord
  2
ByLayer
 70
     0
  3

 72
    65
 73
     0
 40
0.0
  0
LTYPE
  5
5C
330
5
100
AcDbSymbolTableRecord
100
AcDbLinetypeTableRecord
  2
CONTINUOUS
 70
     0
  3
______
 72
    65
 73
     0
 40
0.0
  0
ENDTAB
  0
TABLE
  2
LAYER
  5
2
102
{ACAD_XDICTIONARY
360
21E
102
}
330
0
100
AcDbSymbolTable
 70
     8
  0
LAYER
  5
54
102
{ACAD_XDICTIONARY
360
2D7
102
}
330
2
100
AcDbSymbolTableRecord
100
AcDbLayerTableRecord
  2
0
 70
     0
 62
     7
  6
CONTINUOUS
370
    -3
390
F
347
21
348
0
  0
LAYER
  5
75
102
{ACAD_XDICTIONARY
360
2D9
102
}
330
2
100
AcDbSymbolTableRecord
100
AcDbLayerTableRecord
  2
front_outsideCutPath
 70
     0
 62
     7
  6
CONTINUOUS
370
    -3
390
F
347
21
348
0
  0
LAYER
  5
D4
102
{ACAD_XDICTIONARY
360
2DB
102
}
330
2
100
AcDbSymbolTableRecord
100
AcDbLayerTableRecord
  2
left_outsideCutPath
 70
     0
 62
     7
  6
CONTINUOUS
370
    -3
390
F
347
21
348
0
  0
LAYER
  5
109
102
{ACAD_XDICTIONARY
360
2DD
102
}
330
2
100
AcDbSymbolTableRecord
100
AcDbLayerTableRecord
  2
top_outsideCutPath
 70
     0
 62
     7
  6
CONTINUOUS
370
    -3
390
F
347
21
348
0
  0
LAYER
  5
148
102
{ACAD_XDICTIONARY
360
2DF
102
}
330
2
100
AcDbSymbolTableRecord
100
AcDbLayerTableRecord
  2
back_outsideCutPath
 70
     0
 62
     7
  6
CONTINUOUS
370
    -3
390
F
347
21
348
0
  0
LAYER
  5
1A7
102
{ACAD_XDICTIONARY
360
2E1
102
}
330
2
100
AcDbSymbolTableRecord
100
AcDbLayerTableRecord
  2
right_outsideCutPath
 70
     0
 62
     7
  6
CONTINUOUS
370
    -3
390
F
347
21
348
0
  0
LAYER
  5
1DC
102
{ACAD_XDICTIONARY
360
2E3
102
}
330
2
100
AcDbSymbolTableRecord
100
AcDbLayerTableRecord
  2
bottom_outsideCutPath
 70
     0
 62
     7
  6
CONTINUOUS
370
    -3
390
F
347
21
348
0
  0
LAYER
  5
22F
330
2
100
AcDbSymbolTableRecord
100
AcDbLayerTableRecord
  2
Defpoints
 70
     0
 62
     7
  6
CONTINUOUS
290
     0
370
    -3
390
F
347
21
348
0
  0
ENDTAB
  0
TABLE
  2
STYLE
  5
3
330
0
100
AcDbSymbolTable
 70
     2
  0
STYLE
  5
55
330
3
100
AcDbSymbolTableRecord
100
AcDbTextStyleTableRecord
  2
Standard
 70
     0
 40
0.0
 41
1.0
 50
0.0
 71
     0
 42
0.2
  3
txt
  4

  0
STYLE
  5
59
330
3
100
AcDbSymbolTableRecord
100
AcDbTextStyleTableRecord
  2
Annotative
 70
     0
 40
0.0
 41
1.0
 50
0.0
 71
     0
 42
0.2
  3
txt
  4

1001
AcadAnnotative
1000
AnnotativeData
1002
{
1070
     1
1070
     1
1002
}
  0
ENDTAB
  0
TABLE
  2
VIEW
  5
6
330
0
100
AcDbSymbolTable
 70
     1
  0
ENDTAB
  0
TABLE
  2
UCS
  5
7
330
0
100
AcDbSymbolTable
 70
     0
  0
ENDTAB
  0
TABLE
  2
APPID
  5
9
330
0
100
AcDbSymbolTable
 70
     4
  0
APPID
  5
56
330
9
100
AcDbSymbolTableRecord
100
AcDbRegAppTableRecord
  2
ACAD
 70
     0
  0
APPID
  5
5D
330
9
100
AcDbSymbolTableRecord
100
AcDbRegAppTableRecord
  2
AcadAnnotative
 70
     0
  0
APPID
  5
21D
330
9
100
AcDbSymbolTableRecord
100
AcDbRegAppTableRecord
  2
ACAD_NAV_VCDISPLAY
 70
     0
  0
APPID
  5
24B
330
9
100
AcDbSymbolTableRecord
100
AcDbRegAppTableRecord
  2
ACAD_EXEMPT_FROM_CAD_STANDARDS
 70
     0
  0
ENDTAB
  0
TABLE
  2
DIMSTYLE
  5
A
330
0
100
AcDbSymbolTable
 70
     2
100
AcDbDimStyleTable
 71
     1
340
57
  0
DIMSTYLE
105
57
330
A
100
AcDbSymbolTableRecord
100
AcDbDimStyleTableRecord
  2
Standard
 70
     0
340
55
  0
DIMSTYLE
105
58
330
A
100
AcDbSymbolTableRecord
100
AcDbDimStyleTableRecord
  2
Annotative
 70
     0
340
55
1001
AcadAnnotative
1000
AnnotativeData
1002
{
1070
     1
1070
     1
1002
}
  0
ENDTAB
  0
TABLE
  2
BLOCK_RECORD
  5
1
330
0
100
AcDbSymbolTable
 70
     9
  0
BLOCK_RECORD
  5
6F
330
1
100
AcDbSymbolTableRecord
100
AcDbBlockTableRecord
  2
*Model_Space
340
72
 70
     0
280
     1
281
     0
  0
BLOCK_RECORD
  5
6B
330
1
100
AcDbSymbolTableRecord
100
AcDbBlockTableRecord
  2
*Paper_Space
340
6E
 70
     0
280
     1
281
     0
  0
ENDTAB
  0
ENDSEC
  0
SECTION
  2
BLOCKS
  0
BLOCK
  5
70
330
6F
100
AcDbEntity
  8
0
100
AcDbBlockBegin
  2
*Model_Space
 70
     0
 10
0.0
 20
0.0
 30
0.0
  3
*Model_Space
  1

  0
ENDBLK
  5
71
330
6F
100
AcDbEntity
  8
0
100
AcDbBlockEnd
  0
BLOCK
  5
6C
330
6B
100
AcDbEntity
 67
     1
  8
0
100
AcDbBlockBegin
  2
*Paper_Space
 70
     0
 10
0.0
 20
0.0
 30
0.0
  3
*Paper_Space
  1

  0
ENDBLK
  5
6D
330
6B
100
AcDbEntity
 67
     1
  8
0
100
AcDbBlockEnd
  0
ENDSEC
  0
SECTION
  2
ENTITIES
  0
LINE
  5
76
330
6F
100
AcDbEntity
  8
front_outsideCutPath
100
AcDbLine
 10
0.0
 20
164.0
 30
0.0
 11
0.0
 21
149.335
 31
0.0
  0
LINE
  5
77
330
6F
100
AcDbEntity
  8
front_outsideCutPath
100
AcDbLine
 10
0.0
 20
149.335
 30
0.0
 11
5.5
 21
149.335
 31
0.0
  0
LINE
  5
78
330
6F
100
AcDbEntity
  8
front_outsideCutPath
100
AcDbLine
 10
5.5
 20
149.335
 30
0.0
 11
5.5
 21
134.705
 31
0.0
  0
LINE
  5
79
330
6F
100
AcDbEntity
  8
front_outsideCutPath
100
AcDbLine
 10
5.5
 20
134.705
 30
0.0
 11
0.0
 21
134.705
 31
0.0
  0
LINE
  5
7A
330
6F
100
AcDbEntity
  8
front_outsideCutPath
100
AcDbLine
 10
0.0
 20
134.705
 30
0.0
 11
0.0
 21
120.075
 31
0.0
  0
LINE
  5
7B
330
6F
100
AcDbEntity
  8
front_outsideCutPath
100
AcDbLine
 10
0.0
 20
120.075
 30
0.0
 11
5.5
 21
120.075
 31
0.0
  0
LINE
  5
7C
330
6F
100
AcDbEntity
  8
front_outsideCutPath
100
AcDbLine
 10
5.5
 20
120.075
 30
0.0
 11
5.5
 21
105.445
 31
0.0
  0
LINE
  5
7D
330
6F
100
AcDbEntity
  8
front_outsideCutPath
100
AcDbLine
 10
5.5
 20
105.445
 30
0.0
 11
0.0
 21
105.445
 31
0.0
  0
LINE
  5
7E
330
6F
100
AcDbEntity
  8
front_outsideCutPath
100
AcDbLine
 10
0.0
 20
105.445
 30
0.0
 11
0.0
 21
90.815
 31
0.0
  0
LINE
  5
7F
330
6F
100
AcDbEntity
  8
front_outsideCutPath
100
AcDbLine
 10
0.0
 20
90.815
 30
0.0
 11
5.5
 21
90.815
 31
0.0
  0
LINE
  5
80
330
6F
100
AcDbEntity
  8
front_outsideCutPath
100
AcDbLine
 10
5.5
 20
90.815
 30
0.0
 11
5.5
 21
76.185
 31
0.0
  0
LINE
  5
81
330
6F
100
AcDbEntity
  8
front_outsideCutPath
100
AcDbLine
 10
5.5
 20
76.185
 30
0.0
 11
0.0
 21
76.185
 31
0.0
  0
LINE
  5
82
330
6F
100
AcDbEntity
  8
front_outsideCutPath
100
AcDbLine
 10
0.0
 20
76.185
 30
0.0
 11
0.0
 21
61.55499999999999
 31
0.0
  0
LINE
  5
83
330
6F
100
AcDbEntity
  8
front_outsideCutPath
100
AcDbLine
 10
0.0
 20
61.55499999999999
 30
0.0
 11
5.5
 21
61.55499999999999
 31
0.0
  0
LINE
  5
84
330
6F
100
AcDbEntity
  8
front_outsideCutPath
100
AcDbLine
 10
5.5
 20
61.55499999999999
 30
0.0
 11
5.5
 21
46.92499999999999
 31
0.0
  0
LINE
  5
85
330
6F
100
AcDbEntity
  8
front_outsideCutPath
100
AcDbLine
 10
5.5
 20
46.92499999999999
 30
0.0
 11
0.0
 21
46.92499999999999
 31
0.0
  0
LINE
  5
86
330
6F
100
AcDbEntity
  8
front_outsideCutPath
100
AcDbLine
 10
0.0
 20
46.92499999999999
 30
0.0
 11
0.0
 21
32.295
 31
0.0
  0
LINE
  5
87
330
6F
100
AcDbEntity
  8
front_outsideCutPath
100
AcDbLine
 10
0.0
 20
32.295
 30
0.0
 11
5.5
 21
32.295
 31
0.0
  0
LINE
  5
88
330
6F
100
AcDbEntity
  8
front_outsideCutPath
100
AcDbLine
 10
5.5
 20
32.295
 30
0.0
 11
5.5
 21
17.665
 31
0.0
  0
LINE
  5
89
330
6F
100
AcDbEntity
  8
front_outsideCutPath
100
AcDbLine
 10
5.5
 20
17.665
 30
0.0
 11
0.0
 21
17.665
 31
0.0
  0
LINE
  5
8A
330
6F
100
AcDbEntity
  8
front_outsideCutPath
100
AcDbLine
 10
0.0
 20
17.665
 30
0.0
 11
0.0
 21
3.0
 31
0.0
  0
LINE
  5
8B
330
6F
100
AcDbEntity
  8
front_outsideCutPath
100
AcDbLine
 10
0.0
 20
3.0
 30
0.0
 11
25.035
 21
3.0
 31
0.0
  0
LINE
  5
8C
330
6F
100
AcDbEntity
  8
front_outsideCutPath
100
AcDbLine
 10
25.035
 20
3.0
 30
0.0
 11
25.035
 21
8.5
 31
0.0
  0
LINE
  5
8D
330
6F
100
AcDbEntity
  8
front_outsideCutPath
100
AcDbLine
 10
25.035
 20
8.5
 30
0.0
 11
39.665
 21
8.5
 31
0.0
  0
LINE
  5
8E
330
6F
100
AcDbEntity
  8
front_outsideCutPath
100
AcDbLine
 10
39.665
 20
8.5
 30
0.0
 11
39.665
 21
3.0
 31
0.0
  0
LINE
  5
8F
330
6F
100
AcDbEntity
  8
front_outsideCutPath
100
AcDbLine
 10
39.665
 20
3.0
 30
0.0
 11
54.295
 21
3.0
 31
0.0
  0
LINE
  5
90
330
6F
100
AcDbEntity
  8
front_outsideCutPath
100
AcDbLine
 10
54.295
 20
3.0
 30
0.0
 11
54.295
 21
8.5
 31
0.0
  0
LINE
  5
91
330
6F
100
AcDbEntity
  8
front_outsideCutPath
100
AcDbLine
 10
54.295
 20
8.5
 30
0.0
 11
68.925
 21
8.5
 31
0.0
  0
LINE
  5
92
330
6F
100
AcDbEntity
  8
front_outsideCutPath
100
AcDbLine
 10
68.925
 20
8.5
 30
0.0
 11
68.925
 21
3.0
 31
0.0
  0
LINE
  5
93
330
6F
100
AcDbEntity
  8
front_outsideCutPath
100
AcDbLine
 10
68.925
 20
3.0
 30
0.0
 11
83.55500000000001
 21
3.0
 31
0.0
  0
LINE
  5
94
330
6F
100
AcDbEntity
  8
front_outsideCutPath
100
AcDbLine
 10
83.55500000000001
 20
3.0
 30
0.0
 11
83.55500000000001
 21
8.5
 31
0.0
  0
LINE
  5
95
330
6F
100
AcDbEntity
  8
front_outsideCutPath
100
AcDbLine
 10
83.55500000000001
 20
8.5
 30
0.0
 11
98.185
 21
8.5
 31
0.0
  0
LINE
  5
96
330
6F
100
AcDbEntity
  8
front_outsideCutPath
100
AcDbLine
 10
98.185
 20
8.5
 30
0.0
 11
98.185
 21
3.0
 31
0.0
  0
LINE
  5
97
330
6F
100
AcDbEntity
  8
front_outsideCutPath
100
AcDbLine
 10
98.185
 20
3.0
 30
0.0
 11
112.815
 21
3.0
 31
0.0
  0
LINE
  5
98
330
6F
100
AcDbEntity
  8
front_outsideCutPath
100
AcDbLine
 10
112.815
 20
3.0
 30
0.0
 11
112.815
 21
8.5
 31
0.0
  0
LINE
  5
99
330
6F
100
AcDbEntity
  8
front_outsideCutPath
100
AcDbLine
 10
112.815
 20
8.5
 30
0.0
 11
127.445
 21
8.5
 31
0.0
  0
LINE
  5
9A
330
6F
100
AcDbEntity
  8
front_outsideCutPath
100
AcDbLine
 10
127.445
 20
8.5
 30
0.0
 11
127.445
 21
3.0
 31
0.0
  0
LINE
  5
9B
330
6F
100
AcDbEntity
  8
front_outsideCutPath
100
AcDbLine
 10
127.445
 20
3.0
 30
0.0
 11
142.075
 21
3.0
 31
0.0
  0
LINE
  5
9C
330
6F
100
AcDbEntity
  8
front_outsideCutPath
100
AcDbLine
 10
142.075
 20
3.0
 30
0.0
 11
142.075
 21
8.5
 31
0.0
  0
LINE
  5
9D
330
6F
100
AcDbEntity
  8
front_outsideCutPath
100
AcDbLine
 10
142.075
 20
8.5
 30
0.0
 11
156.705
 21
8.5
 31
0.0
  0
LINE
  5
9E
330
6F
100
AcDbEntity
  8
front_outsideCutPath
100
AcDbLine
 10
156.705
 20
8.5
 30
0.0
 11
156.705
 21
3.0
 31
0.0
  0
LINE
  5
9F
330
6F
100
AcDbEntity
  8
front_outsideCutPath
100
AcDbLine
 10
156.705
 20
3.0
 30
0.0
 11
171.335
 21
3.0
 31
0.0
  0
LINE
  5
A0
330
6F
100
AcDbEntity
  8
front_outsideCutPath
100
AcDbLine
 10
171.335
 20
3.0
 30
0.0
 11
171.335
 21
8.5
 31
0.0
  0
LINE
  5
A1
330
6F
100
AcDbEntity
  8
front_outsideCutPath
100
AcDbLine
 10
171.335
 20
8.5
 30
0.0
 11
185.965
 21
8.5
 31
0.0
  0
LINE
  5
A2
330
6F
100
AcDbEntity
  8
front_outsideCutPath
100
AcDbLine
 10
185.965
 20
8.5
 30
0.0
 11
185.965
 21
3.0
 31
0.0
  0
LINE
  5
A3
330
6F
100
AcDbEntity
  8
front_outsideCutPath
100
AcDbLine
 10
185.965
 20
3.0
 30
0.0
 11
200.595
 21
3.0
 31
0.0
  0
LINE
  5
A4
330
6F
100
AcDbEntity
  8
front_outsideCutPath
100
AcDbLine
 10
200.595
 20
3.0
 30
0.0
 11
211.0
 21
3.0
 31
0.0
  0
LINE
  5
A5
330
6F
100
AcDbEntity
  8
front_outsideCutPath
100
AcDbLine
 10
211.0
 20
3.0
 30
0.0
 11
211.0
 21
17.665
 31
0.0
  0
LINE
  5
A6
330
6F
100
AcDbEntity
  8
front_outsideCutPath
100
AcDbLine
 10
211.0
 20
17.665
 30
0.0
 11
205.5
 21
17.665
 31
0.0
  0
LINE
  5
A7
330
6F
100
AcDbEntity
  8
front_outsideCutPath
100
AcDbLine
 10
205.5
 20
17.665
 30
0.0
 11
205.5
 21
32.295
 31
0.0
  0
LINE
  5
A8
330
6F
100
AcDbEntity
  8
front_outsideCutPath
100
AcDbLine
 10
205.5
 20
32.295
 30
0.0
 11
211.0
 21
32.295
 31
0.0
  0
LINE
  5
A9
330
6F
100
AcDbEntity
  8
front_outsideCutPath
100
AcDbLine
 10
211.0
 20
32.295
 30
0.0
 11
211.0
 21
46.92499999999999
 31
0.0
  0
LINE
  5
AA
330
6F
100
AcDbEntity
  8
front_outsideCutPath
100
AcDbLine
 10
211.0
 20
46.92499999999999
 30
0.0
 11
205.5
 21
46.92499999999999
 31
0.0
  0
LINE
  5
AB
330
6F
100
AcDbEntity
  8
front_outsideCutPath
100
AcDbLine
 10
205.5
 20
46.92499999999999
 30
0.0
 11
205.5
 21
61.55499999999999
 31
0.0
  0
LINE
  5
AC
330
6F
100
AcDbEntity
  8
front_outsideCutPath
100
AcDbLine
 10
205.5
 20
61.55499999999999
 30
0.0
 11
211.0
 21
61.55499999999999
 31
0.0
  0
LINE
  5
AD
330
6F
100
AcDbEntity
  8
front_outsideCutPath
100
AcDbLine
 10
211.0
 20
61.55499999999999
 30
0.0
 11
211.0
 21
76.185
 31
0.0
  0
LINE
  5
AE
330
6F
100
AcDbEntity
  8
front_outsideCutPath
100
AcDbLine
 10
211.0
 20
76.185
 30
0.0
 11
205.5
 21
76.185
 31
0.0
  0
LINE
  5
AF
330
6F
100
AcDbEntity
  8
front_outsideCutPath
100
AcDbLine
 10
205.5
 20
76.185
 30
0.0
 11
205.5
 21
90.815
 31
0.0
  0
LINE
  5
B0
330
6F
100
AcDbEntity
  8
front_outsideCutPath
100
AcDbLine
 10
205.5
 20
90.815
 30
0.0
 11
211.0
 21
90.815
 31
0.0
  0
LINE
  5
B1
330
6F
100
AcDbEntity
  8
front_outsideCutPath
100
AcDbLine
 10
211.0
 20
90.815
 30
0.0
 11
211.0
 21
105.445
 31
0.0
  0
LINE
  5
B2
330
6F
100
AcDbEntity
  8
front_outsideCutPath
100
AcDbLine
 10
211.0
 20
105.445
 30
0.0
 11
205.5
 21
105.445
 31
0.0
  0
LINE
  5
B3
330
6F
100
AcDbEntity
  8
front_outsideCutPath
100
AcDbLine
 10
205.5
 20
105.445
 30
0.0
 11
205.5
 21
120.075
 31
0.0
  0
LINE
  5
B4
330
6F
100
AcDbEntity
  8
front_outsideCutPath
100
AcDbLine
 10
205.5
 20
120.075
 30
0.0
 11
211.0
 21
120.075
 31
0.0
  0
LINE
  5
B5
330
6F
100
AcDbEntity
  8
front_outsideCutPath
100
AcDbLine
 10
211.0
 20
120.075
 30
0.0
 11
211.0
 21
134.705
 31
0.0
  0
LINE
  5
B6
330
6F
100
AcDbEntity
  8
front_outsideCutPath
100
AcDbLine
 10
211.0
 20
134.705
 30
0.0
 11
205.5
 21
134.705
 31
0.0
  0
LINE
  5
B7
330
6F
100
AcDbEntity
  8
front_outsideCutPath
100
AcDbLine
 10
205.5
 20
134.705
 30
0.0
 11
205.5
 21
149.335
 31
0.0
  0
LINE
  5
B8
330
6F
100
AcDbEntity
  8
front_outsideCutPath
100
AcDbLine
 10
205.5
 20
149.335
 30
0.0
 11
211.0
 21
149.335
 31
0.0
  0
LINE
  5
B9
330
6F
100
AcDbEntity
  8
front_outsideCutPath
100
AcDbLine
 10
211.0
 20
149.335
 30
0.0
 11
211.0
 21
164.0
 31
0.0
  0
LINE
  5
BA
330
6F
100
AcDbEntity
  8
front_outsideCutPath
100
AcDbLine
 10
211.0
 20
164.0
 30
0.0
 11
185.965
 21
164.0
 31
0.0
  0
LINE
  5
BB
330
6F
100
AcDbEntity
  8
front_outsideCutPath
100
AcDbLine
 10
185.965
 20
164.0
 30
0.0
 11
185.965
 21
158.5
 31
0.0
  0
LINE
  5
BC
330
6F
100
AcDbEntity
  8
front_outsideCutPath
100
AcDbLine
 10
185.965
 20
158.5
 30
0.0
 11
171.335
 21
158.5
 31
0.0
  0
LINE
  5
BD
330
6F
100
AcDbEntity
  8
front_outsideCutPath
100
AcDbLine
 10
171.335
 20
158.5
 30
0.0
 11
171.335
 21
164.0
 31
0.0
  0
LINE
  5
BE
330
6F
100
AcDbEntity
  8
front_outsideCutPath
100
AcDbLine
 10
171.335
 20
164.0
 30
0.0
 11
156.705
 21
164.0
 31
0.0
  0
LINE
  5
BF
330
6F
100
AcDbEntity
  8
front_outsideCutPath
100
AcDbLine
 10
156.705
 20
164.0
 30
0.0
 11
156.705
 21
158.5
 31
0.0
  0
LINE
  5
C0
330
6F
100
AcDbEntity
  8
front_outsideCutPath
100
AcDbLine
 10
156.705
 20
158.5
 30
0.0
 11
142.075
 21
158.5
 31
0.0
  0
LINE
  5
C1
330
6F
100
AcDbEntity
  8
front_outsideCutPath
100
AcDbLine
 10
142.075
 20
158.5
 30
0.0
 11
142.075
 21
164.0
 31
0.0
  0
LINE
  5
C2
330
6F
100
AcDbEntity
  8
front_outsideCutPath
100
AcDbLine
 10
142.075
 20
164.0
 30
0.0
 11
127.445
 21
164.0
 31
0.0
  0
LINE
  5
C3
330
6F
100
AcDbEntity
  8
front_outsideCutPath
100
AcDbLine
 10
127.445
 20
164.0
 30
0.0
 11
127.445
 21
158.5
 31
0.0
  0
LINE
  5
C4
330
6F
100
AcDbEntity
  8
front_outsideCutPath
100
AcDbLine
 10
127.445
 20
158.5
 30
0.0
 11
112.815
 21
158.5
 31
0.0
  0
LINE
  5
C5
330
6F
100
AcDbEntity
  8
front_outsideCutPath
100
AcDbLine
 10
112.815
 20
158.5
 30
0.0
 11
112.815
 21
164.0
 31
0.0
  0
LINE
  5
C6
330
6F
100
AcDbEntity
  8
front_outsideCutPath
100
AcDbLine
 10
112.815
 20
164.0
 30
0.0
 11
98.185
 21
164.0
 31
0.0
  0
LINE
  5
C7
330
6F
100
AcDbEntity
  8
front_outsideCutPath
100
AcDbLine
 10
98.185
 20
164.0
 30
0.0
 11
98.185
 21
158.5
 31
0.0
  0
LINE
  5
C8
330
6F
100
AcDbEntity
  8
front_outsideCutPath
100
AcDbLine
 10
98.185
 20
158.5
 30
0.0
 11
83.55500000000001
 21
158.5
 31
0.0
  0
LINE
  5
C9
330
6F
100
AcDbEntity
  8
front_outsideCutPath
100
AcDbLine
 10
83.55500000000001
 20
158.5
 30
0.0
 11
83.55500000000001
 21
164.0
 31
0.0
  0
LINE
  5
CA
330
6F
100
AcDbEntity
  8
front_outsideCutPath
100
AcDbLine
 10
83.55500000000001
 20
164.0
 30
0.0
 11
68.925
 21
164.0
 31
0.0
  0
LINE
  5
CB
330
6F
100
AcDbEntity
  8
front_outsideCutPath
100
AcDbLine
 10
68.925
 20
164.0
 30
0.0
 11
68.925
 21
158.5
 31
0.0
  0
LINE
  5
CC
330
6F
100
AcDbEntity
  8
front_outsideCutPath
100
AcDbLine
 10
68.925
 20
158.5
 30
0.0
 11
54.295
 21
158.5
 31
0.0
  0
LINE
  5
CD
330
6F
100
AcDbEntity
  8
front_outsideCutPath
100
AcDbLine
 10
54.295
 20
158.5
 30
0.0
 11
54.295
 21
164.0
 31
0.0
  0
LINE
  5
CE
330
6F
100
AcDbEntity
  8
front_outsideCutPath
100
AcDbLine
 10
54.295
 20
164.0
 30
0.0
 11
39.665
 21
164.0
 31
0.0
  0
LINE
  5
CF
330
6F
100
AcDbEntity
  8
front_outsideCutPath
100
AcDbLine
 10
39.665
 20
164.0
 30
0.0
 11
39.665
 21
158.5
 31
0.0
  0
LINE
  5
D0
330
6F
100
AcDbEntity
  8
front_outsideCutPath
100
AcDbLine
 10
39.665
 20
158.5
 30
0.0
 11
25.035
 21
158.5
 31
0.0
  0
LINE
  5
D1
330
6F
100
AcDbEntity
  8
front_outsideCutPath
100
AcDbLine
 10
25.035
 20
158.5
 30
0.0
 11
25.035
 21
164.0
 31
0.0
  0
LINE
  5
D2
330
6F
100
AcDbEntity
  8
front_outsideCutPath
100
AcDbLine
 10
25.035
 20
164.0
 30
0.0
 11
10.405
 21
164.0
 31
0.0
  0
LINE
  5
D3
330
6F
100
AcDbEntity
  8
front_outsideCutPath
100
AcDbLine
 10
10.405
 20
164.0
 30
0.0
 11
0.0
 21
164.0
 31
0.0
  0
LINE
  5
D5
330
6F
100
AcDbEntity
  8
left_outsideCutPath
100
AcDbLine
 10
219.5
 20
164.0
 30
0.0
 11
219.5
 21
149.335
 31
0.0
  0
LINE
  5
D6
330
6F
100
AcDbEntity
  8
left_outsideCutPath
100
AcDbLine
 10
219.5
 20
149.335
 30
0.0
 11
214.0
 21
149.335
 31
0.0
  0
LINE
  5
D7
330
6F
100
AcDbEntity
  8
left_outsideCutPath
100
AcDbLine
 10
214.0
 20
149.335
 30
0.0
 11
214.0
 21
134.705
 31
0.0
  0
LINE
  5
D8
330
6F
100
AcDbEntity
  8
left_outsideCutPath
100
AcDbLine
 10
214.0
 20
134.705
 30
0.0
 11
219.5
 21
134.705
 31
0.0
  0
LINE
  5
D9
330
6F
100
AcDbEntity
  8
left_outsideCutPath
100
AcDbLine
 10
219.5
 20
134.705
 30
0.0
 11
219.5
 21
120.075
 31
0.0
  0
LINE
  5
DA
330
6F
100
AcDbEntity
  8
left_outsideCutPath
100
AcDbLine
 10
219.5
 20
120.075
 30
0.0
 11
214.0
 21
120.075
 31
0.0
  0
LINE
  5
DB
330
6F
100
AcDbEntity
  8
left_outsideCutPath
100
AcDbLine
 10
214.0
 20
120.075
 30
0.0
 11
214.0
 21
105.445
 31
0.0
  0
LINE
  5
DC
330
6F
100
AcDbEntity
  8
left_outsideCutPath
100
AcDbLine
 10
214.0
 20
105.445
 30
0.0
 11
219.5
 21
105.445
 31
0.0
  0
LINE
  5
DD
330
6F
100
AcDbEntity
  8
left_outsideCutPath
100
AcDbLine
 10
219.5
 20
105.445
 30
0.0
 11
219.5
 21
90.815
 31
0.0
  0
LINE
  5
DE
330
6F
100
AcDbEntity
  8
left_outsideCutPath
100
AcDbLine
 10
219.5
 20
90.815
 30
0.0
 11
214.0
 21
90.815
 31
0.0
  0
LINE
  5
DF
330
6F
100
AcDbEntity
  8
left_outsideCutPath
100
AcDbLine
 10
214.0
 20
90.815
 30
0.0
 11
214.0
 21
76.185
 31
0.0
  0
LINE
  5
E0
330
6F
100
AcDbEntity
  8
left_outsideCutPath
100
AcDbLine
 10
214.0
 20
76.185
 30
0.0
 11
219.5
 21
76.185
 31
0.0
  0
LINE
  5
E1
330
6F
100
AcDbEntity
  8
left_outsideCutPath
100
AcDbLine
 10
219.5
 20
76.185
 30
0.0
 11
219.5
 21
61.55499999999999
 31
0.0
  0
LINE
  5
E2
330
6F
100
AcDbEntity
  8
left_outsideCutPath
100
AcDbLine
 10
219.5
 20
61.55499999999999
 30
0.0
 11
214.0
 21
61.55499999999999
 31
0.0
  0
LINE
  5
E3
330
6F
100
AcDbEntity
  8
left_outsideCutPath
100
AcDbLine
 10
214.0
 20
61.55499999999999
 30
0.0
 11
214.0
 21
46.92499999999999
 31
0.0
  0
LINE
  5
E4
330
6F
100
AcDbEntity
  8
left_outsideCutPath
100
AcDbLine
 10
214.0
 20
46.92499999999999
 30
0.0
 11
219.5
 21
46.92499999999999
 31
0.0
  0
LINE
  5
E5
330
6F
100
AcDbEntity
  8
left_outsideCutPath
100
AcDbLine
 10
219.5
 20
46.92499999999999
 30
0.0
 11
219.5
 21
32.295
 31
0.0
  0
LINE
  5
E6
330
6F
100
AcDbEntity
  8
left_outsideCutPath
100
AcDbLine
 10
219.5
 20
32.295
 30
0.0
 11
214.0
 21
32.295
 31
0.0
  0
LINE
  5
E7
330
6F
100
AcDbEntity
  8
left_outsideCutPath
100
AcDbLine
 10
214.0
 20
32.295
 30
0.0
 11
214.0
 21
17.665
 31
0.0
  0
LINE
  5
E8
330
6F
100
AcDbEntity
  8
left_outsideCutPath
100
AcDbLine
 10
214.0
 20
17.665
 30
0.0
 11
219.5
 21
17.665
 31
0.0
  0
LINE
  5
E9
330
6F
100
AcDbEntity
  8
left_outsideCutPath
100
AcDbLine
 10
219.5
 20
17.665
 30
0.0
 11
219.5
 21
3.0
 31
0.0
  0
LINE
  5
EA
330
6F
100
AcDbEntity
  8
left_outsideCutPath
100
AcDbLine
 10
219.5
 20
3.0
 30
0.0
 11
227.185
 21
3.0
 31
0.0
  0
LINE
  5
EB
330
6F
100
AcDbEntity
  8
left_outsideCutPath
100
AcDbLine
 10
227.185
 20
3.0
 30
0.0
 11
227.185
 21
8.5
 31
0.0
  0
LINE
  5
EC
330
6F
100
AcDbEntity
  8
left_outsideCutPath
100
AcDbLine
 10
227.185
 20
8.5
 30
0.0
 11
241.815
 21
8.5
 31
0.0
  0
LINE
  5
ED
330
6F
100
AcDbEntity
  8
left_outsideCutPath
100
AcDbLine
 10
241.815
 20
8.5
 30
0.0
 11
241.815
 21
3.0
 31
0.0
  0
LINE
  5
EE
330
6F
100
AcDbEntity
  8
left_outsideCutPath
100
AcDbLine
 10
241.815
 20
3.0
 30
0.0
 11
249.5
 21
3.0
 31
0.0
  0
LINE
  5
EF
330
6F
100
AcDbEntity
  8
left_outsideCutPath
100
AcDbLine
 10
249.5
 20
3.0
 30
0.0
 11
249.5
 21
17.665
 31
0.0
  0
LINE
  5
F0
330
6F
100
AcDbEntity
  8
left_outsideCutPath
100
AcDbLine
 10
249.5
 20
17.665
 30
0.0
 11
255.0
 21
17.665
 31
0.0
  0
LINE
  5
F1
330
6F
100
AcDbEntity
  8
left_outsideCutPath
100
AcDbLine
 10
255.0
 20
17.665
 30
0.0
 11
255.0
 21
32.295
 31
0.0
  0
LINE
  5
F2
330
6F
100
AcDbEntity
  8
left_outsideCutPath
100
AcDbLine
 10
255.0
 20
32.295
 30
0.0
 11
249.5
 21
32.295
 31
0.0
  0
LINE
  5
F3
330
6F
100
AcDbEntity
  8
left_outsideCutPath
100
AcDbLine
 10
249.5
 20
32.295
 30
0.0
 11
249.5
 21
46.92499999999999
 31
0.0
  0
LINE
  5
F4
330
6F
100
AcDbEntity
  8
left_outsideCutPath
100
AcDbLine
 10
249.5
 20
46.92499999999999
 30
0.0
 11
255.0
 21
46.92499999999999
 31
0.0
  0
LINE
  5
F5
330
6F
100
AcDbEntity
  8
left_outsideCutPath
100
AcDbLine
 10
255.0
 20
46.92499999999999
 30
0.0
 11
255.0
 21
61.55499999999999
 31
0.0
  0
LINE
  5
F6
330
6F
100
AcDbEntity
  8
left_outsideCutPath
100
AcDbLine
 10
255.0
 20
61.55499999999999
 30
0.0
 11
249.5
 21
61.55499999999999
 31
0.0
  0
LINE
  5
F7
330
6F
100
AcDbEntity
  8
left_outsideCutPath
100
AcDbLine
 10
249.5
 20
61.55499999999999
 30
0.0
 11
249.5
 21
76.185
 31
0.0
  0
LINE
  5
F8
330
6F
100
AcDbEntity
  8
left_outsideCutPath
100
AcDbLine
 10
249.5
 20
76.185
 30
0.0
 11
255.0
 21
76.185
 31
0.0
  0
LINE
  5
F9
330
6F
100
AcDbEntity
  8
left_outsideCutPath
100
AcDbLine
 10
255.0
 20
76.185
 30
0.0
 11
255.0
 21
90.815
 31
0.0
  0
LINE
  5
FA
330
6F
100
AcDbEntity
  8
left_outsideCutPath
100
AcDbLine
 10
255.0
 20
90.815
 30
0.0
 11
249.5
 21
90.815
 31
0.0
  0
LINE
  5
FB
330
6F
100
AcDbEntity
  8
left_outsideCutPath
100
AcDbLine
 10
249.5
 20
90.815
 30
0.0
 11
249.5
 21
105.445
 31
0.0
  0
LINE
  5
FC
330
6F
100
AcDbEntity
  8
left_outsideCutPath
100
AcDbLine
 10
249.5
 20
105.445
 30
0.0
 11
255.0
 21
105.445
 31
0.0
  0
LINE
  5
FD
330
6F
100
AcDbEntity
  8
left_outsideCutPath
100
AcDbLine
 10
255.0
 20
105.445
 30
0.0
 11
255.0
 21
120.075
 31
0.0
  0
LINE
  5
FE
330
6F
100
AcDbEntity
  8
left_outsideCutPath
100
AcDbLine
 10
255.0
 20
120.075
 30
0.0
 11
249.5
 21
120.075
 31
0.0
  0
LINE
  5
FF
330
6F
100
AcDbEntity
  8
left_outsideCutPath
100
AcDbLine
 10
249.5
 20
120.075
 30
0.0
 11
249.5
 21
134.705
 31
0.0
  0
LINE
  5
100
330
6F
100
AcDbEntity
  8
left_outsideCutPath
100
AcDbLine
 10
249.5
 20
134.705
 30
0.0
 11
255.0
 21
134.705
 31
0.0
  0
LINE
  5
101
330
6F
100
AcDbEntity
  8
left_outsideCutPath
100
AcDbLine
 10
255.0
 20
134.705
 30
0.0
 11
255.0
 21
149.335
 31
0.0
  0
LINE
  5
102
330
6F
100
AcDbEntity
  8
left_outsideCutPath
100
AcDbLine
 10
255.0
 20
149.335
 30
0.0
 11
249.5
 21
149.335
 31
0.0
  0
LINE
  5
103
330
6F
100
AcDbEntity
  8
left_outsideCutPath
100
AcDbLine
 10
249.5
 20
149.335
 30
0.0
 11
249.5
 21
164.0
 31
0.0
  0
LINE
  5
104
330
6F
100
AcDbEntity
  8
left_outsideCutPath
100
AcDbLine
 10
249.5
 20
164.0
 30
0.0
 11
241.815
 21
164.0
 31
0.0
  0
LINE
  5
105
330
6F
100
AcDbEntity
  8
left_outsideCutPath
100
AcDbLine
 10
241.815
 20
164.0
 30
0.0
 11
241.815
 21
158.5
 31
0.0
  0
LINE
  5
106
330
6F
100
AcDbEntity
  8
left_outsideCutPath
100
AcDbLine
 10
241.815
 20
158.5
 30
0.0
 11
227.185
 21
158.5
 31
0.0
  0
LINE
  5
107
330
6F
100
AcDbEntity
  8
left_outsideCutPath
100
AcDbLine
 10
227.185
 20
158.5
 30
0.0
 11
227.185
 21
164.0
 31
0.0
  0
LINE
  5
108
330
6F
100
AcDbEntity
  8
left_outsideCutPath
100
AcDbLine
 10
227.185
 20
164.0
 30
0.0
 11
219.5
 21
164.0
 31
0.0
  0
LINE
  5
10A
330
6F
100
AcDbEntity
  8
top_outsideCutPath
100
AcDbLine
 10
2.437741653436432
 20
-58.14921787405001
 30
0.0
 11
2.437741653436432
 21
-65.83421787405001
 31
0.0
  0
LINE
  5
10B
330
6F
100
AcDbEntity
  8
top_outsideCutPath
100
AcDbLine
 10
2.437741653436432
 20
-65.83421787405001
 30
0.0
 11
-3.062258346563567
 21
-65.83421787405001
 31
0.0
  0
LINE
  5
10C
330
6F
100
AcDbEntity
  8
top_outsideCutPath
100
AcDbLine
 10
-3.062258346563567
 20
-65.83421787405001
 30
0.0
 11
-3.062258346563567
 21
-80.46421787405
 31
0.0
  0
LINE
  5
10D
330
6F
100
AcDbEntity
  8
top_outsideCutPath
100
AcDbLine
 10
-3.062258346563567
 20
-80.46421787405
 30
0.0
 11
2.437741653436432
 21
-80.46421787405
 31
0.0
  0
LINE
  5
10E
330
6F
100
AcDbEntity
  8
top_outsideCutPath
100
AcDbLine
 10
2.437741653436432
 20
-80.46421787405
 30
0.0
 11
2.437741653436432
 21
-88.14921787405001
 31
0.0
  0
LINE
  5
10F
330
6F
100
AcDbEntity
  8
top_outsideCutPath
100
AcDbLine
 10
2.437741653436432
 20
-88.14921787405001
 30
0.0
 11
21.97274165343646
 21
-88.14921787405001
 31
0.0
  0
LINE
  5
110
330
6F
100
AcDbEntity
  8
top_outsideCutPath
100
AcDbLine
 10
21.97274165343646
 20
-88.14921787405001
 30
0.0
 11
21.97274165343646
 21
-93.64921787405
 31
0.0
  0
LINE
  5
111
330
6F
100
AcDbEntity
  8
top_outsideCutPath
100
AcDbLine
 10
21.97274165343646
 20
-93.64921787405
 30
0.0
 11
36.60274165343646
 21
-93.64921787405
 31
0.0
  0
LINE
  5
112
330
6F
100
AcDbEntity
  8
top_outsideCutPath
100
AcDbLine
 10
36.60274165343646
 20
-93.64921787405
 30
0.0
 11
36.60274165343646
 21
-88.14921787405001
 31
0.0
  0
LINE
  5
113
330
6F
100
AcDbEntity
  8
top_outsideCutPath
100
AcDbLine
 10
36.60274165343646
 20
-88.14921787405001
 30
0.0
 11
51.23274165343644
 21
-88.14921787405001
 31
0.0
  0
LINE
  5
114
330
6F
100
AcDbEntity
  8
top_outsideCutPath
100
AcDbLine
 10
51.23274165343644
 20
-88.14921787405001
 30
0.0
 11
51.23274165343644
 21
-93.64921787405
 31
0.0
  0
LINE
  5
115
330
6F
100
AcDbEntity
  8
top_outsideCutPath
100
AcDbLine
 10
51.23274165343644
 20
-93.64921787405
 30
0.0
 11
65.86274165343644
 21
-93.64921787405
 31
0.0
  0
LINE
  5
116
330
6F
100
AcDbEntity
  8
top_outsideCutPath
100
AcDbLine
 10
65.86274165343644
 20
-93.64921787405
 30
0.0
 11
65.86274165343644
 21
-88.14921787405001
 31
0.0
  0
LINE
  5
117
330
6F
100
AcDbEntity
  8
top_outsideCutPath
100
AcDbLine
 10
65.86274165343644
 20
-88.14921787405001
 30
0.0
 11
80.49274165343645
 21
-88.14921787405001
 31
0.0
  0
LINE
  5
118
330
6F
100
AcDbEntity
  8
top_outsideCutPath
100
AcDbLine
 10
80.49274165343645
 20
-88.14921787405001
 30
0.0
 11
80.49274165343645
 21
-93.64921787405
 31
0.0
  0
LINE
  5
119
330
6F
100
AcDbEntity
  8
top_outsideCutPath
100
AcDbLine
 10
80.49274165343645
 20
-93.64921787405
 30
0.0
 11
95.12274165343644
 21
-93.64921787405
 31
0.0
  0
LINE
  5
11A
330
6F
100
AcDbEntity
  8
top_outsideCutPath
100
AcDbLine
 10
95.12274165343644
 20
-93.64921787405
 30
0.0
 11
95.12274165343644
 21
-88.14921787405001
 31
0.0
  0
LINE
  5
11B
330
6F
100
AcDbEntity
  8
top_outsideCutPath
100
AcDbLine
 10
95.12274165343644
 20
-88.14921787405001
 30
0.0
 11
109.7527416534364
 21
-88.14921787405001
 31
0.0
  0
LINE
  5
11C
330
6F
100
AcDbEntity
  8
top_outsideCutPath
100
AcDbLine
 10
109.7527416534364
 20
-88.14921787405001
 30
0.0
 11
109.7527416534364
 21
-93.64921787405
 31
0.0
  0
LINE
  5
11D
330
6F
100
AcDbEntity
  8
top_outsideCutPath
100
AcDbLine
 10
109.7527416534364
 20
-93.64921787405
 30
0.0
 11
124.3827416534364
 21
-93.64921787405
 31
0.0
  0
LINE
  5
11E
330
6F
100
AcDbEntity
  8
top_outsideCutPath
100
AcDbLine
 10
124.3827416534364
 20
-93.64921787405
 30
0.0
 11
124.3827416534364
 21
-88.14921787405001
 31
0.0
  0
LINE
  5
11F
330
6F
100
AcDbEntity
  8
top_outsideCutPath
100
AcDbLine
 10
124.3827416534364
 20
-88.14921787405001
 30
0.0
 11
139.0127416534364
 21
-88.14921787405001
 31
0.0
  0
LINE
  5
120
330
6F
100
AcDbEntity
  8
top_outsideCutPath
100
AcDbLine
 10
139.0127416534364
 20
-88.14921787405001
 30
0.0
 11
139.0127416534364
 21
-93.64921787405
 31
0.0
  0
LINE
  5
121
330
6F
100
AcDbEntity
  8
top_outsideCutPath
100
AcDbLine
 10
139.0127416534364
 20
-93.64921787405
 30
0.0
 11
153.6427416534364
 21
-93.64921787405
 31
0.0
  0
LINE
  5
122
330
6F
100
AcDbEntity
  8
top_outsideCutPath
100
AcDbLine
 10
153.6427416534364
 20
-93.64921787405
 30
0.0
 11
153.6427416534364
 21
-88.14921787405001
 31
0.0
  0
LINE
  5
123
330
6F
100
AcDbEntity
  8
top_outsideCutPath
100
AcDbLine
 10
153.6427416534364
 20
-88.14921787405001
 30
0.0
 11
168.2727416534364
 21
-88.14921787405001
 31
0.0
  0
LINE
  5
124
330
6F
100
AcDbEntity
  8
top_outsideCutPath
100
AcDbLine
 10
168.2727416534364
 20
-88.14921787405001
 30
0.0
 11
168.2727416534364
 21
-93.64921787405
 31
0.0
  0
LINE
  5
125
330
6F
100
AcDbEntity
  8
top_outsideCutPath
100
AcDbLine
 10
168.2727416534364
 20
-93.64921787405
 30
0.0
 11
182.9027416534364
 21
-93.64921787405
 31
0.0
  0
LINE
  5
126
330
6F
100
AcDbEntity
  8
top_outsideCutPath
100
AcDbLine
 10
182.9027416534364
 20
-93.64921787405
 30
0.0
 11
182.9027416534364
 21
-88.14921787405001
 31
0.0
  0
LINE
  5
127
330
6F
100
AcDbEntity
  8
top_outsideCutPath
100
AcDbLine
 10
182.9027416534364
 20
-88.14921787405001
 30
0.0
 11
197.5327416534364
 21
-88.14921787405001
 31
0.0
  0
LINE
  5
128
330
6F
100
AcDbEntity
  8
top_outsideCutPath
100
AcDbLine
 10
197.5327416534364
 20
-88.14921787405001
 30
0.0
 11
202.4377416534364
 21
-88.14921787405001
 31
0.0
  0
LINE
  5
129
330
6F
100
AcDbEntity
  8
top_outsideCutPath
100
AcDbLine
 10
202.4377416534364
 20
-88.14921787405001
 30
0.0
 11
202.4377416534364
 21
-80.46421787405
 31
0.0
  0
LINE
  5
12A
330
6F
100
AcDbEntity
  8
top_outsideCutPath
100
AcDbLine
 10
202.4377416534364
 20
-80.46421787405
 30
0.0
 11
207.9377416534364
 21
-80.46421787405
 31
0.0
  0
LINE
  5
12B
330
6F
100
AcDbEntity
  8
top_outsideCutPath
100
AcDbLine
 10
207.9377416534364
 20
-80.46421787405
 30
0.0
 11
207.9377416534364
 21
-65.83421787405001
 31
0.0
  0
LINE
  5
12C
330
6F
100
AcDbEntity
  8
top_outsideCutPath
100
AcDbLine
 10
207.9377416534364
 20
-65.83421787405001
 30
0.0
 11
202.4377416534364
 21
-65.83421787405001
 31
0.0
  0
LINE
  5
12D
330
6F
100
AcDbEntity
  8
top_outsideCutPath
100
AcDbLine
 10
202.4377416534364
 20
-65.83421787405001
 30
0.0
 11
202.4377416534364
 21
-58.14921787405001
 31
0.0
  0
LINE
  5
12E
330
6F
100
AcDbEntity
  8
top_outsideCutPath
100
AcDbLine
 10
202.4377416534364
 20
-58.14921787405001
 30
0.0
 11
182.9027416534364
 21
-58.14921787405001
 31
0.0
  0
LINE
  5
12F
330
6F
100
AcDbEntity
  8
top_outsideCutPath
100
AcDbLine
 10
182.9027416534364
 20
-58.14921787405001
 30
0.0
 11
182.9027416534364
 21
-52.64921787405
 31
0.0
  0
LINE
  5
130
330
6F
100
AcDbEntity
  8
top_outsideCutPath
100
AcDbLine
 10
182.9027416534364
 20
-52.64921787405
 30
0.0
 11
168.2727416534364
 21
-52.64921787405
 31
0.0
  0
LINE
  5
131
330
6F
100
AcDbEntity
  8
top_outsideCutPath
100
AcDbLine
 10
168.2727416534364
 20
-52.64921787405
 30
0.0
 11
168.2727416534364
 21
-58.14921787405001
 31
0.0
  0
LINE
  5
132
330
6F
100
AcDbEntity
  8
top_outsideCutPath
100
AcDbLine
 10
168.2727416534364
 20
-58.14921787405001
 30
0.0
 11
153.6427416534364
 21
-58.14921787405001
 31
0.0
  0
LINE
  5
133
330
6F
100
AcDbEntity
  8
top_outsideCutPath
100
AcDbLine
 10
153.6427416534364
 20
-58.14921787405001
 30
0.0
 11
153.6427416534364
 21
-52.64921787405
 31
0.0
  0
LINE
  5
134
330
6F
100
AcDbEntity
  8
top_outsideCutPath
100
AcDbLine
 10
153.6427416534364
 20
-52.64921787405
 30
0.0
 11
139.0127416534364
 21
-52.64921787405
 31
0.0
  0
LINE
  5
135
330
6F
100
AcDbEntity
  8
top_outsideCutPath
100
AcDbLine
 10
139.0127416534364
 20
-52.64921787405
 30
0.0
 11
139.0127416534364
 21
-58.14921787405001
 31
0.0
  0
LINE
  5
136
330
6F
100
AcDbEntity
  8
top_outsideCutPath
100
AcDbLine
 10
139.0127416534364
 20
-58.14921787405001
 30
0.0
 11
124.3827416534364
 21
-58.14921787405001
 31
0.0
  0
LINE
  5
137
330
6F
100
AcDbEntity
  8
top_outsideCutPath
100
AcDbLine
 10
124.3827416534364
 20
-58.14921787405001
 30
0.0
 11
124.3827416534364
 21
-52.64921787405
 31
0.0
  0
LINE
  5
138
330
6F
100
AcDbEntity
  8
top_outsideCutPath
100
AcDbLine
 10
124.3827416534364
 20
-52.64921787405
 30
0.0
 11
109.7527416534364
 21
-52.64921787405
 31
0.0
  0
LINE
  5
139
330
6F
100
AcDbEntity
  8
top_outsideCutPath
100
AcDbLine
 10
109.7527416534364
 20
-52.64921787405
 30
0.0
 11
109.7527416534364
 21
-58.14921787405001
 31
0.0
  0
LINE
  5
13A
330
6F
100
AcDbEntity
  8
top_outsideCutPath
100
AcDbLine
 10
109.7527416534364
 20
-58.14921787405001
 30
0.0
 11
95.12274165343644
 21
-58.14921787405001
 31
0.0
  0
LINE
  5
13B
330
6F
100
AcDbEntity
  8
top_outsideCutPath
100
AcDbLine
 10
95.12274165343644
 20
-58.14921787405001
 30
0.0
 11
95.12274165343644
 21
-52.64921787405
 31
0.0
  0
LINE
  5
13C
330
6F
100
AcDbEntity
  8
top_outsideCutPath
100
AcDbLine
 10
95.12274165343644
 20
-52.64921787405
 30
0.0
 11
80.49274165343645
 21
-52.64921787405
 31
0.0
  0
LINE
  5
13D
330
6F
100
AcDbEntity
  8
top_outsideCutPath
100
AcDbLine
 10
80.49274165343645
 20
-52.64921787405
 30
0.0
 11
80.49274165343645
 21
-58.14921787405001
 31
0.0
  0
LINE
  5
13E
330
6F
100
AcDbEntity
  8
top_outsideCutPath
100
AcDbLine
 10
80.49274165343645
 20
-58.14921787405001
 30
0.0
 11
65.86274165343644
 21
-58.14921787405001
 31
0.0
  0
LINE
  5
13F
330
6F
100
AcDbEntity
  8
top_outsideCutPath
100
AcDbLine
 10
65.86274165343644
 20
-58.14921787405001
 30
0.0
 11
65.86274165343644
 21
-52.64921787405
 31
0.0
  0
LINE
  5
140
330
6F
100
AcDbEntity
  8
top_outsideCutPath
100
AcDbLine
 10
65.86274165343644
 20
-52.64921787405
 30
0.0
 11
51.23274165343644
 21
-52.64921787405
 31
0.0
  0
LINE
  5
141
330
6F
100
AcDbEntity
  8
top_outsideCutPath
100
AcDbLine
 10
51.23274165343644
 20
-52.64921787405
 30
0.0
 11
51.23274165343644
 21
-58.14921787405001
 31
0.0
  0
LINE
  5
142
330
6F
100
AcDbEntity
  8
top_outsideCutPath
100
AcDbLine
 10
51.23274165343644
 20
-58.14921787405001
 30
0.0
 11
36.60274165343646
 21
-58.14921787405001
 31
0.0
  0
LINE
  5
143
330
6F
100
AcDbEntity
  8
top_outsideCutPath
100
AcDbLine
 10
36.60274165343646
 20
-58.14921787405001
 30
0.0
 11
36.60274165343646
 21
-52.64921787405
 31
0.0
  0
LINE
  5
144
330
6F
100
AcDbEntity
  8
top_outsideCutPath
100
AcDbLine
 10
36.60274165343646
 20
-52.64921787405
 30
0.0
 11
21.97274165343646
 21
-52.64921787405
 31
0.0
  0
LINE
  5
145
330
6F
100
AcDbEntity
  8
top_outsideCutPath
100
AcDbLine
 10
21.97274165343646
 20
-52.64921787405
 30
0.0
 11
21.97274165343646
 21
-58.14921787405001
 31
0.0
  0
LINE
  5
146
330
6F
100
AcDbEntity
  8
top_outsideCutPath
100
AcDbLine
 10
21.97274165343646
 20
-58.14921787405001
 30
0.0
 11
7.342741653436405
 21
-58.14921787405001
 31
0.0
  0
LINE
  5
147
330
6F
100
AcDbEntity
  8
top_outsideCutPath
100
AcDbLine
 10
7.342741653436405
 20
-58.14921787405001
 30
0.0
 11
2.437741653436432
 21
-58.14921787405001
 31
0.0
  0
LINE
  5
149
330
6F
100
AcDbEntity
  8
back_outsideCutPath
100
AcDbLine
 10
0.0
 20
328.0
 30
0.0
 11
0.0
 21
313.335
 31
0.0
  0
LINE
  5
14A
330
6F
100
AcDbEntity
  8
back_outsideCutPath
100
AcDbLine
 10
0.0
 20
313.335
 30
0.0
 11
5.5
 21
313.335
 31
0.0
  0
LINE
  5
14B
330
6F
100
AcDbEntity
  8
back_outsideCutPath
100
AcDbLine
 10
5.5
 20
313.335
 30
0.0
 11
5.5
 21
298.705
 31
0.0
  0
LINE
  5
14C
330
6F
100
AcDbEntity
  8
back_outsideCutPath
100
AcDbLine
 10
5.5
 20
298.705
 30
0.0
 11
0.0
 21
298.705
 31
0.0
  0
LINE
  5
14D
330
6F
100
AcDbEntity
  8
back_outsideCutPath
100
AcDbLine
 10
0.0
 20
298.705
 30
0.0
 11
0.0
 21
284.075
 31
0.0
  0
LINE
  5
14E
330
6F
100
AcDbEntity
  8
back_outsideCutPath
100
AcDbLine
 10
0.0
 20
284.075
 30
0.0
 11
5.5
 21
284.075
 31
0.0
  0
LINE
  5
14F
330
6F
100
AcDbEntity
  8
back_outsideCutPath
100
AcDbLine
 10
5.5
 20
284.075
 30
0.0
 11
5.5
 21
269.445
 31
0.0
  0
LINE
  5
150
330
6F
100
AcDbEntity
  8
back_outsideCutPath
100
AcDbLine
 10
5.5
 20
269.445
 30
0.0
 11
0.0
 21
269.445
 31
0.0
  0
LINE
  5
151
330
6F
100
AcDbEntity
  8
back_outsideCutPath
100
AcDbLine
 10
0.0
 20
269.445
 30
0.0
 11
0.0
 21
254.815
 31
0.0
  0
LINE
  5
152
330
6F
100
AcDbEntity
  8
back_outsideCutPath
100
AcDbLine
 10
0.0
 20
254.815
 30
0.0
 11
5.5
 21
254.815
 31
0.0
  0
LINE
  5
153
330
6F
100
AcDbEntity
  8
back_outsideCutPath
100
AcDbLine
 10
5.5
 20
254.815
 30
0.0
 11
5.5
 21
240.185
 31
0.0
  0
LINE
  5
154
330
6F
100
AcDbEntity
  8
back_outsideCutPath
100
AcDbLine
 10
5.5
 20
240.185
 30
0.0
 11
0.0
 21
240.185
 31
0.0
  0
LINE
  5
155
330
6F
100
AcDbEntity
  8
back_outsideCutPath
100
AcDbLine
 10
0.0
 20
240.185
 30
0.0
 11
0.0
 21
225.555
 31
0.0
  0
LINE
  5
156
330
6F
100
AcDbEntity
  8
back_outsideCutPath
100
AcDbLine
 10
0.0
 20
225.555
 30
0.0
 11
5.5
 21
225.555
 31
0.0
  0
LINE
  5
157
330
6F
100
AcDbEntity
  8
back_outsideCutPath
100
AcDbLine
 10
5.5
 20
225.555
 30
0.0
 11
5.5
 21
210.925
 31
0.0
  0
LINE
  5
158
330
6F
100
AcDbEntity
  8
back_outsideCutPath
100
AcDbLine
 10
5.5
 20
210.925
 30
0.0
 11
0.0
 21
210.925
 31
0.0
  0
LINE
  5
159
330
6F
100
AcDbEntity
  8
back_outsideCutPath
100
AcDbLine
 10
0.0
 20
210.925
 30
0.0
 11
0.0
 21
196.295
 31
0.0
  0
LINE
  5
15A
330
6F
100
AcDbEntity
  8
back_outsideCutPath
100
AcDbLine
 10
0.0
 20
196.295
 30
0.0
 11
5.5
 21
196.295
 31
0.0
  0
LINE
  5
15B
330
6F
100
AcDbEntity
  8
back_outsideCutPath
100
AcDbLine
 10
5.5
 20
196.295
 30
0.0
 11
5.5
 21
181.665
 31
0.0
  0
LINE
  5
15C
330
6F
100
AcDbEntity
  8
back_outsideCutPath
100
AcDbLine
 10
5.5
 20
181.665
 30
0.0
 11
0.0
 21
181.665
 31
0.0
  0
LINE
  5
15D
330
6F
100
AcDbEntity
  8
back_outsideCutPath
100
AcDbLine
 10
0.0
 20
181.665
 30
0.0
 11
0.0
 21
167.0
 31
0.0
  0
LINE
  5
15E
330
6F
100
AcDbEntity
  8
back_outsideCutPath
100
AcDbLine
 10
0.0
 20
167.0
 30
0.0
 11
25.035
 21
167.0
 31
0.0
  0
LINE
  5
15F
330
6F
100
AcDbEntity
  8
back_outsideCutPath
100
AcDbLine
 10
25.035
 20
167.0
 30
0.0
 11
25.035
 21
172.5
 31
0.0
  0
LINE
  5
160
330
6F
100
AcDbEntity
  8
back_outsideCutPath
100
AcDbLine
 10
25.035
 20
172.5
 30
0.0
 11
39.665
 21
172.5
 31
0.0
  0
LINE
  5
161
330
6F
100
AcDbEntity
  8
back_outsideCutPath
100
AcDbLine
 10
39.665
 20
172.5
 30
0.0
 11
39.665
 21
167.0
 31
0.0
  0
LINE
  5
162
330
6F
100
AcDbEntity
  8
back_outsideCutPath
100
AcDbLine
 10
39.665
 20
167.0
 30
0.0
 11
54.295
 21
167.0
 31
0.0
  0
LINE
  5
163
330
6F
100
AcDbEntity
  8
back_outsideCutPath
100
AcDbLine
 10
54.295
 20
167.0
 30
0.0
 11
54.295
 21
172.5
 31
0.0
  0
LINE
  5
164
330
6F
100
AcDbEntity
  8
back_outsideCutPath
100
AcDbLine
 10
54.295
 20
172.5
 30
0.0
 11
68.925
 21
172.5
 31
0.0
  0
LINE
  5
165
330
6F
100
AcDbEntity
  8
back_outsideCutPath
100
AcDbLine
 10
68.925
 20
172.5
 30
0.0
 11
68.925
 21
167.0
 31
0.0
  0
LINE
  5
166
330
6F
100
AcDbEntity
  8
back_outsideCutPath
100
AcDbLine
 10
68.925
 20
167.0
 30
0.0
 11
83.55500000000001
 21
167.0
 31
0.0
  0
LINE
  5
167
330
6F
100
AcDbEntity
  8
back_outsideCutPath
100
AcDbLine
 10
83.55500000000001
 20
167.0
 30
0.0
 11
83.55500000000001
 21
172.5
 31
0.0
  0
LINE
  5
168
330
6F
100
AcDbEntity
  8
back_outsideCutPath
100
AcDbLine
 10
83.55500000000001
 20
172.5
 30
0.0
 11
98.185
 21
172.5
 31
0.0
  0
LINE
  5
169
330
6F
100
AcDbEntity
  8
back_outsideCutPath
100
AcDbLine
 10
98.185
 20
172.5
 30
0.0
 11
98.185
 21
167.0
 31
0.0
  0
LINE
  5
16A
330
6F
100
AcDbEntity
  8
back_outsideCutPath
100
AcDbLine
 10
98.185
 20
167.0
 30
0.0
 11
112.815
 21
167.0
 31
0.0
  0
LINE
  5
16B
330
6F
100
AcDbEntity
  8
back_outsideCutPath
100
AcDbLine
 10
112.815
 20
167.0
 30
0.0
 11
112.815
 21
172.5
 31
0.0
  0
LINE
  5
16C
330
6F
100
AcDbEntity
  8
back_outsideCutPath
100
AcDbLine
 10
112.815
 20
172.5
 30
0.0
 11
127.445
 21
172.5
 31
0.0
  0
LINE
  5
16D
330
6F
100
AcDbEntity
  8
back_outsideCutPath
100
AcDbLine
 10
127.445
 20
172.5
 30
0.0
 11
127.445
 21
167.0
 31
0.0
  0
LINE
  5
16E
330
6F
100
AcDbEntity
  8
back_outsideCutPath
100
AcDbLine
 10
127.445
 20
167.0
 30
0.0
 11
142.075
 21
167.0
 31
0.0
  0
LINE
  5
16F
330
6F
100
AcDbEntity
  8
back_outsideCutPath
100
AcDbLine
 10
142.075
 20
167.0
 30
0.0
 11
142.075
 21
172.5
 31
0.0
  0
LINE
  5
170
330
6F
100
AcDbEntity
  8
back_outsideCutPath
100
AcDbLine
 10
142.075
 20
172.5
 30
0.0
 11
156.705
 21
172.5
 31
0.0
  0
LINE
  5
171
330
6F
100
AcDbEntity
  8
back_outsideCutPath
100
AcDbLine
 10
156.705
 20
172.5
 30
0.0
 11
156.705
 21
167.0
 31
0.0
  0
LINE
  5
172
330
6F
100
AcDbEntity
  8
back_outsideCutPath
100
AcDbLine
 10
156.705
 20
167.0
 30
0.0
 11
171.335
 21
167.0
 31
0.0
  0
LINE
  5
173
330
6F
100
AcDbEntity
  8
back_outsideCutPath
100
AcDbLine
 10
171.335
 20
167.0
 30
0.0
 11
171.335
 21
172.5
 31
0.0
  0
LINE
  5
174
330
6F
100
AcDbEntity
  8
back_outsideCutPath
100
AcDbLine
 10
171.335
 20
172.5
 30
0.0
 11
185.965
 21
172.5
 31
0.0
  0
LINE
  5
175
330
6F
100
AcDbEntity
  8
back_outsideCutPath
100
AcDbLine
 10
185.965
 20
172.5
 30
0.0
 11
185.965
 21
167.0
 31
0.0
  0
LINE
  5
176
330
6F
100
AcDbEntity
  8
back_outsideCutPath
100
AcDbLine
 10
185.965
 20
167.0
 30
0.0
 11
200.595
 21
167.0
 31
0.0
  0
LINE
  5
177
330
6F
100
AcDbEntity
  8
back_outsideCutPath
100
AcDbLine
 10
200.595
 20
167.0
 30
0.0
 11
211.0
 21
167.0
 31
0.0
  0
LINE
  5
178
330
6F
100
AcDbEntity
  8
back_outsideCutPath
100
AcDbLine
 10
211.0
 20
167.0
 30
0.0
 11
211.0
 21
181.665
 31
0.0
  0
LINE
  5
179
330
6F
100
AcDbEntity
  8
back_outsideCutPath
100
AcDbLine
 10
211.0
 20
181.665
 30
0.0
 11
205.5
 21
181.665
 31
0.0
  0
LINE
  5
17A
330
6F
100
AcDbEntity
  8
back_outsideCutPath
100
AcDbLine
 10
205.5
 20
181.665
 30
0.0
 11
205.5
 21
196.295
 31
0.0
  0
LINE
  5
17B
330
6F
100
AcDbEntity
  8
back_outsideCutPath
100
AcDbLine
 10
205.5
 20
196.295
 30
0.0
 11
211.0
 21
196.295
 31
0.0
  0
LINE
  5
17C
330
6F
100
AcDbEntity
  8
back_outsideCutPath
100
AcDbLine
 10
211.0
 20
196.295
 30
0.0
 11
211.0
 21
210.925
 31
0.0
  0
LINE
  5
17D
330
6F
100
AcDbEntity
  8
back_outsideCutPath
100
AcDbLine
 10
211.0
 20
210.925
 30
0.0
 11
205.5
 21
210.925
 31
0.0
  0
LINE
  5
17E
330
6F
100
AcDbEntity
  8
back_outsideCutPath
100
AcDbLine
 10
205.5
 20
210.925
 30
0.0
 11
205.5
 21
225.555
 31
0.0
  0
LINE
  5
17F
330
6F
100
AcDbEntity
  8
back_outsideCutPath
100
AcDbLine
 10
205.5
 20
225.555
 30
0.0
 11
211.0
 21
225.555
 31
0.0
  0
LINE
  5
180
330
6F
100
AcDbEntity
  8
back_outsideCutPath
100
AcDbLine
 10
211.0
 20
225.555
 30
0.0
 11
211.0
 21
240.185
 31
0.0
  0
LINE
  5
181
330
6F
100
AcDbEntity
  8
back_outsideCutPath
100
AcDbLine
 10
211.0
 20
240.185
 30
0.0
 11
205.5
 21
240.185
 31
0.0
  0
LINE
  5
182
330
6F
100
AcDbEntity
  8
back_outsideCutPath
100
AcDbLine
 10
205.5
 20
240.185
 30
0.0
 11
205.5
 21
254.815
 31
0.0
  0
LINE
  5
183
330
6F
100
AcDbEntity
  8
back_outsideCutPath
100
AcDbLine
 10
205.5
 20
254.815
 30
0.0
 11
211.0
 21
254.815
 31
0.0
  0
LINE
  5
184
330
6F
100
AcDbEntity
  8
back_outsideCutPath
100
AcDbLine
 10
211.0
 20
254.815
 30
0.0
 11
211.0
 21
269.445
 31
0.0
  0
LINE
  5
185
330
6F
100
AcDbEntity
  8
back_outsideCutPath
100
AcDbLine
 10
211.0
 20
269.445
 30
0.0
 11
205.5
 21
269.445
 31
0.0
  0
LINE
  5
186
330
6F
100
AcDbEntity
  8
back_outsideCutPath
100
AcDbLine
 10
205.5
 20
269.445
 30
0.0
 11
205.5
 21
284.075
 31
0.0
  0
LINE
  5
187
330
6F
100
AcDbEntity
  8
back_outsideCutPath
100
AcDbLine
 10
205.5
 20
284.075
 30
0.0
 11
211.0
 21
284.075
 31
0.0
  0
LINE
  5
188
330
6F
100
AcDbEntity
  8
back_outsideCutPath
100
AcDbLine
 10
211.0
 20
284.075
 30
0.0
 11
211.0
 21
298.705
 31
0.0
  0
LINE
  5
189
330
6F
100
AcDbEntity
  8
back_outsideCutPath
100
AcDbLine
 10
211.0
 20
298.705
 30
0.0
 11
205.5
 21
298.705
 31
0.0
  0
LINE
  5
18A
330
6F
100
AcDbEntity
  8
back_outsideCutPath
100
AcDbLine
 10
205.5
 20
298.705
 30
0.0
 11
205.5
 21
313.335
 31
0.0
  0
LINE
  5
18B
330
6F
100
AcDbEntity
  8
back_outsideCutPath
100
AcDbLine
 10
205.5
 20
313.335
 30
0.0
 11
211.0
 21
313.335
 31
0.0
  0
LINE
  5
18C
330
6F
100
AcDbEntity
  8
back_outsideCutPath
100
AcDbLine
 10
211.0
 20
313.335
 30
0.0
 11
211.0
 21
328.0
 31
0.0
  0
LINE
  5
18D
330
6F
100
AcDbEntity
  8
back_outsideCutPath
100
AcDbLine
 10
211.0
 20
328.0
 30
0.0
 11
185.965
 21
328.0
 31
0.0
  0
LINE
  5
18E
330
6F
100
AcDbEntity
  8
back_outsideCutPath
100
AcDbLine
 10
185.965
 20
328.0
 30
0.0
 11
185.965
 21
322.5
 31
0.0
  0
LINE
  5
18F
330
6F
100
AcDbEntity
  8
back_outsideCutPath
100
AcDbLine
 10
185.965
 20
322.5
 30
0.0
 11
171.335
 21
322.5
 31
0.0
  0
LINE
  5
190
330
6F
100
AcDbEntity
  8
back_outsideCutPath
100
AcDbLine
 10
171.335
 20
322.5
 30
0.0
 11
171.335
 21
328.0
 31
0.0
  0
LINE
  5
191
330
6F
100
AcDbEntity
  8
back_outsideCutPath
100
AcDbLine
 10
171.335
 20
328.0
 30
0.0
 11
156.705
 21
328.0
 31
0.0
  0
LINE
  5
192
330
6F
100
AcDbEntity
  8
back_outsideCutPath
100
AcDbLine
 10
156.705
 20
328.0
 30
0.0
 11
156.705
 21
322.5
 31
0.0
  0
LINE
  5
193
330
6F
100
AcDbEntity
  8
back_outsideCutPath
100
AcDbLine
 10
156.705
 20
322.5
 30
0.0
 11
142.075
 21
322.5
 31
0.0
  0
LINE
  5
194
330
6F
100
AcDbEntity
  8
back_outsideCutPath
100
AcDbLine
 10
142.075
 20
322.5
 30
0.0
 11
142.075
 21
328.0
 31
0.0
  0
LINE
  5
195
330
6F
100
AcDbEntity
  8
back_outsideCutPath
100
AcDbLine
 10
142.075
 20
328.0
 30
0.0
 11
127.445
 21
328.0
 31
0.0
  0
LINE
  5
196
330
6F
100
AcDbEntity
  8
back_outsideCutPath
100
AcDbLine
 10
127.445
 20
328.0
 30
0.0
 11
127.445
 21
322.5
 31
0.0
  0
LINE
  5
197
330
6F
100
AcDbEntity
  8
back_outsideCutPath
100
AcDbLine
 10
127.445
 20
322.5
 30
0.0
 11
112.815
 21
322.5
 31
0.0
  0
LINE
  5
198
330
6F
100
AcDbEntity
  8
back_outsideCutPath
100
AcDbLine
 10
112.815
 20
322.5
 30
0.0
 11
112.815
 21
328.0
 31
0.0
  0
LINE
  5
199
330
6F
100
AcDbEntity
  8
back_outsideCutPath
100
AcDbLine
 10
112.815
 20
328.0
 30
0.0
 11
98.185
 21
328.0
 31
0.0
  0
LINE
  5
19A
330
6F
100
AcDbEntity
  8
back_outsideCutPath
100
AcDbLine
 10
98.185
 20
328.0
 30
0.0
 11
98.185
 21
322.5
 31
0.0
  0
LINE
  5
19B
330
6F
100
AcDbEntity
  8
back_outsideCutPath
100
AcDbLine
 10
98.185
 20
322.5
 30
0.0
 11
83.55500000000001
 21
322.5
 31
0.0
  0
LINE
  5
19C
330
6F
100
AcDbEntity
  8
back_outsideCutPath
100
AcDbLine
 10
83.55500000000001
 20
322.5
 30
0.0
 11
83.55500000000001
 21
328.0
 31
0.0
  0
LINE
  5
19D
330
6F
100
AcDbEntity
  8
back_outsideCutPath
100
AcDbLine
 10
83.55500000000001
 20
328.0
 30
0.0
 11
68.925
 21
328.0
 31
0.0
  0
LINE
  5
19E
330
6F
100
AcDbEntity
  8
back_outsideCutPath
100
AcDbLine
 10
68.925
 20
328.0
 30
0.0
 11
68.925
 21
322.5
 31
0.0
  0
LINE
  5
19F
330
6F
100
AcDbEntity
  8
back_outsideCutPath
100
AcDbLine
 10
68.925
 20
322.5
 30
0.0
 11
54.295
 21
322.5
 31
0.0
  0
LINE
  5
1A0
330
6F
100
AcDbEntity
  8
back_outsideCutPath
100
AcDbLine
 10
54.295
 20
322.5
 30
0.0
 11
54.295
 21
328.0
 31
0.0
  0
LINE
  5
1A1
330
6F
100
AcDbEntity
  8
back_outsideCutPath
100
AcDbLine
 10
54.295
 20
328.0
 30
0.0
 11
39.665
 21
328.0
 31
0.0
  0
LINE
  5
1A2
330
6F
100
AcDbEntity
  8
back_outsideCutPath
100
AcDbLine
 10
39.665
 20
328.0
 30
0.0
 11
39.665
 21
322.5
 31
0.0
  0
LINE
  5
1A3
330
6F
100
AcDbEntity
  8
back_outsideCutPath
100
AcDbLine
 10
39.665
 20
322.5
 30
0.0
 11
25.035
 21
322.5
 31
0.0
  0
LINE
  5
1A4
330
6F
100
AcDbEntity
  8
back_outsideCutPath
100
AcDbLine
 10
25.035
 20
322.5
 30
0.0
 11
25.035
 21
328.0
 31
0.0
  0
LINE
  5
1A5
330
6F
100
AcDbEntity
  8
back_outsideCutPath
100
AcDbLine
 10
25.035
 20
328.0
 30
0.0
 11
10.405
 21
328.0
 31
0.0
  0
LINE
  5
1A6
330
6F
100
AcDbEntity
  8
back_outsideCutPath
100
AcDbLine
 10
10.405
 20
328.0
 30
0.0
 11
0.0
 21
328.0
 31
0.0
  0
LINE
  5
1A8
330
6F
100
AcDbEntity
  8
right_outsideCutPath
100
AcDbLine
 10
219.5
 20
328.0
 30
0.0
 11
219.5
 21
313.335
 31
0.0
  0
LINE
  5
1A9
330
6F
100
AcDbEntity
  8
right_outsideCutPath
100
AcDbLine
 10
219.5
 20
313.335
 30
0.0
 11
214.0
 21
313.335
 31
0.0
  0
LINE
  5
1AA
330
6F
100
AcDbEntity
  8
right_outsideCutPath
100
AcDbLine
 10
214.0
 20
313.335
 30
0.0
 11
214.0
 21
298.705
 31
0.0
  0
LINE
  5
1AB
330
6F
100
AcDbEntity
  8
right_outsideCutPath
100
AcDbLine
 10
214.0
 20
298.705
 30
0.0
 11
219.5
 21
298.705
 31
0.0
  0
LINE
  5
1AC
330
6F
100
AcDbEntity
  8
right_outsideCutPath
100
AcDbLine
 10
219.5
 20
298.705
 30
0.0
 11
219.5
 21
284.075
 31
0.0
  0
LINE
  5
1AD
330
6F
100
AcDbEntity
  8
right_outsideCutPath
100
AcDbLine
 10
219.5
 20
284.075
 30
0.0
 11
214.0
 21
284.075
 31
0.0
  0
LINE
  5
1AE
330
6F
100
AcDbEntity
  8
right_outsideCutPath
100
AcDbLine
 10
214.0
 20
284.075
 30
0.0
 11
214.0
 21
269.445
 31
0.0
  0
LINE
  5
1AF
330
6F
100
AcDbEntity
  8
right_outsideCutPath
100
AcDbLine
 10
214.0
 20
269.445
 30
0.0
 11
219.5
 21
269.445
 31
0.0
  0
LINE
  5
1B0
330
6F
100
AcDbEntity
  8
right_outsideCutPath
100
AcDbLine
 10
219.5
 20
269.445
 30
0.0
 11
219.5
 21
254.815
 31
0.0
  0
LINE
  5
1B1
330
6F
100
AcDbEntity
  8
right_outsideCutPath
100
AcDbLine
 10
219.5
 20
254.815
 30
0.0
 11
214.0
 21
254.815
 31
0.0
  0
LINE
  5
1B2
330
6F
100
AcDbEntity
  8
right_outsideCutPath
100
AcDbLine
 10
214.0
 20
254.815
 30
0.0
 11
214.0
 21
240.185
 31
0.0
  0
LINE
  5
1B3
330
6F
100
AcDbEntity
  8
right_outsideCutPath
100
AcDbLine
 10
214.0
 20
240.185
 30
0.0
 11
219.5
 21
240.185
 31
0.0
  0
LINE
  5
1B4
330
6F
100
AcDbEntity
  8
right_outsideCutPath
100
AcDbLine
 10
219.5
 20
240.185
 30
0.0
 11
219.5
 21
225.555
 31
0.0
  0
LINE
  5
1B5
330
6F
100
AcDbEntity
  8
right_outsideCutPath
100
AcDbLine
 10
219.5
 20
225.555
 30
0.0
 11
214.0
 21
225.555
 31
0.0
  0
LINE
  5
1B6
330
6F
100
AcDbEntity
  8
right_outsideCutPath
100
AcDbLine
 10
214.0
 20
225.555
 30
0.0
 11
214.0
 21
210.925
 31
0.0
  0
LINE
  5
1B7
330
6F
100
AcDbEntity
  8
right_outsideCutPath
100
AcDbLine
 10
214.0
 20
210.925
 30
0.0
 11
219.5
 21
210.925
 31
0.0
  0
LINE
  5
1B8
330
6F
100
AcDbEntity
  8
right_outsideCutPath
100
AcDbLine
 10
219.5
 20
210.925
 30
0.0
 11
219.5
 21
196.295
 31
0.0
  0
LINE
  5
1B9
330
6F
100
AcDbEntity
  8
right_outsideCutPath
100
AcDbLine
 10
219.5
 20
196.295
 30
0.0
 11
214.0
 21
196.295
 31
0.0
  0
LINE
  5
1BA
330
6F
100
AcDbEntity
  8
right_outsideCutPath
100
AcDbLine
 10
214.0
 20
196.295
 30
0.0
 11
214.0
 21
181.665
 31
0.0
  0
LINE
  5
1BB
330
6F
100
AcDbEntity
  8
right_outsideCutPath
100
AcDbLine
 10
214.0
 20
181.665
 30
0.0
 11
219.5
 21
181.665
 31
0.0
  0
LINE
  5
1BC
330
6F
100
AcDbEntity
  8
right_outsideCutPath
100
AcDbLine
 10
219.5
 20
181.665
 30
0.0
 11
219.5
 21
167.0
 31
0.0
  0
LINE
  5
1BD
330
6F
100
AcDbEntity
  8
right_outsideCutPath
100
AcDbLine
 10
219.5
 20
167.0
 30
0.0
 11
227.185
 21
167.0
 31
0.0
  0
LINE
  5
1BE
330
6F
100
AcDbEntity
  8
right_outsideCutPath
100
AcDbLine
 10
227.185
 20
167.0
 30
0.0
 11
227.185
 21
172.5
 31
0.0
  0
LINE
  5
1BF
330
6F
100
AcDbEntity
  8
right_outsideCutPath
100
AcDbLine
 10
227.185
 20
172.5
 30
0.0
 11
241.815
 21
172.5
 31
0.0
  0
LINE
  5
1C0
330
6F
100
AcDbEntity
  8
right_outsideCutPath
100
AcDbLine
 10
241.815
 20
172.5
 30
0.0
 11
241.815
 21
167.0
 31
0.0
  0
LINE
  5
1C1
330
6F
100
AcDbEntity
  8
right_outsideCutPath
100
AcDbLine
 10
241.815
 20
167.0
 30
0.0
 11
249.5
 21
167.0
 31
0.0
  0
LINE
  5
1C2
330
6F
100
AcDbEntity
  8
right_outsideCutPath
100
AcDbLine
 10
249.5
 20
167.0
 30
0.0
 11
249.5
 21
181.665
 31
0.0
  0
LINE
  5
1C3
330
6F
100
AcDbEntity
  8
right_outsideCutPath
100
AcDbLine
 10
249.5
 20
181.665
 30
0.0
 11
255.0
 21
181.665
 31
0.0
  0
LINE
  5
1C4
330
6F
100
AcDbEntity
  8
right_outsideCutPath
100
AcDbLine
 10
255.0
 20
181.665
 30
0.0
 11
255.0
 21
196.295
 31
0.0
  0
LINE
  5
1C5
330
6F
100
AcDbEntity
  8
right_outsideCutPath
100
AcDbLine
 10
255.0
 20
196.295
 30
0.0
 11
249.5
 21
196.295
 31
0.0
  0
LINE
  5
1C6
330
6F
100
AcDbEntity
  8
right_outsideCutPath
100
AcDbLine
 10
249.5
 20
196.295
 30
0.0
 11
249.5
 21
210.925
 31
0.0
  0
LINE
  5
1C7
330
6F
100
AcDbEntity
  8
right_outsideCutPath
100
AcDbLine
 10
249.5
 20
210.925
 30
0.0
 11
255.0
 21
210.925
 31
0.0
  0
LINE
  5
1C8
330
6F
100
AcDbEntity
  8
right_outsideCutPath
100
AcDbLine
 10
255.0
 20
210.925
 30
0.0
 11
255.0
 21
225.555
 31
0.0
  0
LINE
  5
1C9
330
6F
100
AcDbEntity
  8
right_outsideCutPath
100
AcDbLine
 10
255.0
 20
225.555
 30
0.0
 11
249.5
 21
225.555
 31
0.0
  0
LINE
  5
1CA
330
6F
100
AcDbEntity
  8
right_outsideCutPath
100
AcDbLine
 10
249.5
 20
225.555
 30
0.0
 11
249.5
 21
240.185
 31
0.0
  0
LINE
  5
1CB
330
6F
100
AcDbEntity
  8
right_outsideCutPath
100
AcDbLine
 10
249.5
 20
240.185
 30
0.0
 11
255.0
 21
240.185
 31
0.0
  0
LINE
  5
1CC
330
6F
100
AcDbEntity
  8
right_outsideCutPath
100
AcDbLine
 10
255.0
 20
240.185
 30
0.0
 11
255.0
 21
254.815
 31
0.0
  0
LINE
  5
1CD
330
6F
100
AcDbEntity
  8
right_outsideCutPath
100
AcDbLine
 10
255.0
 20
254.815
 30
0.0
 11
249.5
 21
254.815
 31
0.0
  0
LINE
  5
1CE
330
6F
100
AcDbEntity
  8
right_outsideCutPath
100
AcDbLine
 10
249.5
 20
254.815
 30
0.0
 11
249.5
 21
269.445
 31
0.0
  0
LINE
  5
1CF
330
6F
100
AcDbEntity
  8
right_outsideCutPath
100
AcDbLine
 10
249.5
 20
269.445
 30
0.0
 11
255.0
 21
269.445
 31
0.0
  0
LINE
  5
1D0
330
6F
100
AcDbEntity
  8
right_outsideCutPath
100
AcDbLine
 10
255.0
 20
269.445
 30
0.0
 11
255.0
 21
284.075
 31
0.0
  0
LINE
  5
1D1
330
6F
100
AcDbEntity
  8
right_outsideCutPath
100
AcDbLine
 10
255.0
 20
284.075
 30
0.0
 11
249.5
 21
284.075
 31
0.0
  0
LINE
  5
1D2
330
6F
100
AcDbEntity
  8
right_outsideCutPath
100
AcDbLine
 10
249.5
 20
284.075
 30
0.0
 11
249.5
 21
298.705
 31
0.0
  0
LINE
  5
1D3
330
6F
100
AcDbEntity
  8
right_outsideCutPath
100
AcDbLine
 10
249.5
 20
298.705
 30
0.0
 11
255.0
 21
298.705
 31
0.0
  0
LINE
  5
1D4
330
6F
100
AcDbEntity
  8
right_outsideCutPath
100
AcDbLine
 10
255.0
 20
298.705
 30
0.0
 11
255.0
 21
313.335
 31
0.0
  0
LINE
  5
1D5
330
6F
100
AcDbEntity
  8
right_outsideCutPath
100
AcDbLine
 10
255.0
 20
313.335
 30
0.0
 11
249.5
 21
313.335
 31
0.0
  0
LINE
  5
1D6
330
6F
100
AcDbEntity
  8
right_outsideCutPath
100
AcDbLine
 10
249.5
 20
313.335
 30
0.0
 11
249.5
 21
328.0
 31
0.0
  0
LINE
  5
1D7
330
6F
100
AcDbEntity
  8
right_outsideCutPath
100
AcDbLine
 10
249.5
 20
328.0
 30
0.0
 11
241.815
 21
328.0
 31
0.0
  0
LINE
  5
1D8
330
6F
100
AcDbEntity
  8
right_outsideCutPath
100
AcDbLine
 10
241.815
 20
328.0
 30
0.0
 11
241.815
 21
322.5
 31
0.0
  0
LINE
  5
1D9
330
6F
100
AcDbEntity
  8
right_outsideCutPath
100
AcDbLine
 10
241.815
 20
322.5
 30
0.0
 11
227.185
 21
322.5
 31
0.0
  0
LINE
  5
1DA
330
6F
100
AcDbEntity
  8
right_outsideCutPath
100
AcDbLine
 10
227.185
 20
322.5
 30
0.0
 11
227.185
 21
328.0
 31
0.0
  0
LINE
  5
1DB
330
6F
100
AcDbEntity
  8
right_outsideCutPath
100
AcDbLine
 10
227.185
 20
328.0
 30
0.0
 11
219.5
 21
328.0
 31
0.0
  0
LINE
  5
1DD
330
6F
100
AcDbEntity
  8
bottom_outsideCutPath
100
AcDbLine
 10
2.437741653436432
 20
-14.14921787405001
 30
0.0
 11
2.437741653436432
 21
-21.83421787405001
 31
0.0
  0
LINE
  5
1DE
330
6F
100
AcDbEntity
  8
bottom_outsideCutPath
100
AcDbLine
 10
2.437741653436432
 20
-21.83421787405001
 30
0.0
 11
-3.062258346563567
 21
-21.83421787405001
 31
0.0
  0
LINE
  5
1DF
330
6F
100
AcDbEntity
  8
bottom_outsideCutPath
100
AcDbLine
 10
-3.062258346563567
 20
-21.83421787405001
 30
0.0
 11
-3.062258346563567
 21
-36.46421787405001
 31
0.0
  0
LINE
  5
1E0
330
6F
100
AcDbEntity
  8
bottom_outsideCutPath
100
AcDbLine
 10
-3.062258346563567
 20
-36.46421787405001
 30
0.0
 11
2.437741653436432
 21
-36.46421787405001
 31
0.0
  0
LINE
  5
1E1
330
6F
100
AcDbEntity
  8
bottom_outsideCutPath
100
AcDbLine
 10
2.437741653436432
 20
-36.46421787405001
 30
0.0
 11
2.437741653436432
 21
-44.14921787405001
 31
0.0
  0
LINE
  5
1E2
330
6F
100
AcDbEntity
  8
bottom_outsideCutPath
100
AcDbLine
 10
2.437741653436432
 20
-44.14921787405001
 30
0.0
 11
21.97274165343646
 21
-44.14921787405001
 31
0.0
  0
LINE
  5
1E3
330
6F
100
AcDbEntity
  8
bottom_outsideCutPath
100
AcDbLine
 10
21.97274165343646
 20
-44.14921787405001
 30
0.0
 11
21.97274165343646
 21
-49.64921787405001
 31
0.0
  0
LINE
  5
1E4
330
6F
100
AcDbEntity
  8
bottom_outsideCutPath
100
AcDbLine
 10
21.97274165343646
 20
-49.64921787405001
 30
0.0
 11
36.60274165343646
 21
-49.64921787405001
 31
0.0
  0
LINE
  5
1E5
330
6F
100
AcDbEntity
  8
bottom_outsideCutPath
100
AcDbLine
 10
36.60274165343646
 20
-49.64921787405001
 30
0.0
 11
36.60274165343646
 21
-44.14921787405001
 31
0.0
  0
LINE
  5
1E6
330
6F
100
AcDbEntity
  8
bottom_outsideCutPath
100
AcDbLine
 10
36.60274165343646
 20
-44.14921787405001
 30
0.0
 11
51.23274165343644
 21
-44.14921787405001
 31
0.0
  0
LINE
  5
1E7
330
6F
100
AcDbEntity
  8
bottom_outsideCutPath
100
AcDbLine
 10
51.23274165343644
 20
-44.14921787405001
 30
0.0
 11
51.23274165343644
 21
-49.64921787405001
 31
0.0
  0
LINE
  5
1E8
330
6F
100
AcDbEntity
  8
bottom_outsideCutPath
100
AcDbLine
 10
51.23274165343644
 20
-49.64921787405001
 30
0.0
 11
65.86274165343644
 21
-49.64921787405001
 31
0.0
  0
LINE
  5
1E9
330
6F
100
AcDbEntity
  8
bottom_outsideCutPath
100
AcDbLine
 10
65.86274165343644
 20
-49.64921787405001
 30
0.0
 11
65.86274165343644
 21
-44.14921787405001
 31
0.0
  0
LINE
  5
1EA
330
6F
100
AcDbEntity
  8
bottom_outsideCutPath
100
AcDbLine
 10
65.86274165343644
 20
-44.14921787405001
 30
0.0
 11
80.49274165343645
 21
-44.14921787405001
 31
0.0
  0
LINE
  5
1EB
330
6F
100
AcDbEntity
  8
bottom_outsideCutPath
100
AcDbLine
 10
80.49274165343645
 20
-44.14921787405001
 30
0.0
 11
80.49274165343645
 21
-49.64921787405001
 31
0.0
  0
LINE
  5
1EC
330
6F
100
AcDbEntity
  8
bottom_outsideCutPath
100
AcDbLine
 10
80.49274165343645
 20
-49.64921787405001
 30
0.0
 11
95.12274165343644
 21
-49.64921787405001
 31
0.0
  0
LINE
  5
1ED
330
6F
100
AcDbEntity
  8
bottom_outsideCutPath
100
AcDbLine
 10
95.12274165343644
 20
-49.64921787405001
 30
0.0
 11
95.12274165343644
 21
-44.14921787405001
 31
0.0
  0
LINE
  5
1EE
330
6F
100
AcDbEntity
  8
bottom_outsideCutPath
100
AcDbLine
 10
95.12274165343644
 20
-44.14921787405001
 30
0.0
 11
109.7527416534364
 21
-44.14921787405001
 31
0.0
  0
LINE
  5
1EF
330
6F
100
AcDbEntity
  8
bottom_outsideCutPath
100
AcDbLine
 10
109.7527416534364
 20
-44.14921787405001
 30
0.0
 11
109.7527416534364
 21
-49.64921787405001
 31
0.0
  0
LINE
  5
1F0
330
6F
100
AcDbEntity
  8
bottom_outsideCutPath
100
AcDbLine
 10
109.7527416534364
 20
-49.64921787405001
 30
0.0
 11
124.3827416534364
 21
-49.64921787405001
 31
0.0
  0
LINE
  5
1F1
330
6F
100
AcDbEntity
  8
bottom_outsideCutPath
100
AcDbLine
 10
124.3827416534364
 20
-49.64921787405001
 30
0.0
 11
124.3827416534364
 21
-44.14921787405001
 31
0.0
  0
LINE
  5
1F2
330
6F
100
AcDbEntity
  8
bottom_outsideCutPath
100
AcDbLine
 10
124.3827416534364
 20
-44.14921787405001
 30
0.0
 11
139.0127416534364
 21
-44.14921787405001
 31
0.0
  0
LINE
  5
1F3
330
6F
100
AcDbEntity
  8
bottom_outsideCutPath
100
AcDbLine
 10
139.0127416534364
 20
-44.14921787405001
 30
0.0
 11
139.0127416534364
 21
-49.64921787405001
 31
0.0
  0
LINE
  5
1F4
330
6F
100
AcDbEntity
  8
bottom_outsideCutPath
100
AcDbLine
 10
139.0127416534364
 20
-49.64921787405001
 30
0.0
 11
153.6427416534364
 21
-49.64921787405001
 31
0.0
  0
LINE
  5
1F5
330
6F
100
AcDbEntity
  8
bottom_outsideCutPath
100
AcDbLine
 10
153.6427416534364
 20
-49.64921787405001
 30
0.0
 11
153.6427416534364
 21
-44.14921787405001
 31
0.0
  0
LINE
  5
1F6
330
6F
100
AcDbEntity
  8
bottom_outsideCutPath
100
AcDbLine
 10
153.6427416534364
 20
-44.14921787405001
 30
0.0
 11
168.2727416534364
 21
-44.14921787405001
 31
0.0
  0
LINE
  5
1F7
330
6F
100
AcDbEntity
  8
bottom_outsideCutPath
100
AcDbLine
 10
168.2727416534364
 20
-44.14921787405001
 30
0.0
 11
168.2727416534364
 21
-49.64921787405001
 31
0.0
  0
LINE
  5
1F8
330
6F
100
AcDbEntity
  8
bottom_outsideCutPath
100
AcDbLine
 10
168.2727416534364
 20
-49.64921787405001
 30
0.0
 11
182.9027416534364
 21
-49.64921787405001
 31
0.0
  0
LINE
  5
1F9
330
6F
100
AcDbEntity
  8
bottom_outsideCutPath
100
AcDbLine
 10
182.9027416534364
 20
-49.64921787405001
 30
0.0
 11
182.9027416534364
 21
-44.14921787405001
 31
0.0
  0
LINE
  5
1FA
330
6F
100
AcDbEntity
  8
bottom_outsideCutPath
100
AcDbLine
 10
182.9027416534364
 20
-44.14921787405001
 30
0.0
 11
197.5327416534364
 21
-44.14921787405001
 31
0.0
  0
LINE
  5
1FB
330
6F
100
AcDbEntity
  8
bottom_outsideCutPath
100
AcDbLine
 10
197.5327416534364
 20
-44.14921787405001
 30
0.0
 11
202.4377416534364
 21
-44.14921787405001
 31
0.0
  0
LINE
  5
1FC
330
6F
100
AcDbEntity
  8
bottom_outsideCutPath
100
AcDbLine
 10
202.4377416534364
 20
-44.14921787405001
 30
0.0
 11
202.4377416534364
 21
-36.46421787405001
 31
0.0
  0
LINE
  5
1FD
330
6F
100
AcDbEntity
  8
bottom_outsideCutPath
100
AcDbLine
 10
202.4377416534364
 20
-36.46421787405001
 30
0.0
 11
207.9377416534364
 21
-36.46421787405001
 31
0.0
  0
LINE
  5
1FE
330
6F
100
AcDbEntity
  8
bottom_outsideCutPath
100
AcDbLine
 10
207.9377416534364
 20
-36.46421787405001
 30
0.0
 11
207.9377416534364
 21
-21.83421787405001
 31
0.0
  0
LINE
  5
1FF
330
6F
100
AcDbEntity
  8
bottom_outsideCutPath
100
AcDbLine
 10
207.9377416534364
 20
-21.83421787405001
 30
0.0
 11
202.4377416534364
 21
-21.83421787405001
 31
0.0
  0
LINE
  5
200
330
6F
100
AcDbEntity
  8
bottom_outsideCutPath
100
AcDbLine
 10
202.4377416534364
 20
-21.83421787405001
 30
0.0
 11
202.4377416534364
 21
-14.14921787405001
 31
0.0
  0
LINE
  5
201
330
6F
100
AcDbEntity
  8
bottom_outsideCutPath
100
AcDbLine
 10
202.4377416534364
 20
-14.14921787405001
 30
0.0
 11
182.9027416534364
 21
-14.14921787405001
 31
0.0
  0
LINE
  5
202
330
6F
100
AcDbEntity
  8
bottom_outsideCutPath
100
AcDbLine
 10
182.9027416534364
 20
-14.14921787405001
 30
0.0
 11
182.9027416534364
 21
-8.649217874050009
 31
0.0
  0
LINE
  5
203
330
6F
100
AcDbEntity
  8
bottom_outsideCutPath
100
AcDbLine
 10
182.9027416534364
 20
-8.649217874050009
 30
0.0
 11
168.2727416534364
 21
-8.649217874050009
 31
0.0
  0
LINE
  5
204
330
6F
100
AcDbEntity
  8
bottom_outsideCutPath
100
AcDbLine
 10
168.2727416534364
 20
-8.649217874050009
 30
0.0
 11
168.2727416534364
 21
-14.14921787405001
 31
0.0
  0
LINE
  5
205
330
6F
100
AcDbEntity
  8
bottom_outsideCutPath
100
AcDbLine
 10
168.2727416534364
 20
-14.14921787405001
 30
0.0
 11
153.6427416534364
 21
-14.14921787405001
 31
0.0
  0
LINE
  5
206
330
6F
100
AcDbEntity
  8
bottom_outsideCutPath
100
AcDbLine
 10
153.6427416534364
 20
-14.14921787405001
 30
0.0
 11
153.6427416534364
 21
-8.649217874050009
 31
0.0
  0
LINE
  5
207
330
6F
100
AcDbEntity
  8
bottom_outsideCutPath
100
AcDbLine
 10
153.6427416534364
 20
-8.649217874050009
 30
0.0
 11
139.0127416534364
 21
-8.649217874050009
 31
0.0
  0
LINE
  5
208
330
6F
100
AcDbEntity
  8
bottom_outsideCutPath
100
AcDbLine
 10
139.0127416534364
 20
-8.649217874050009
 30
0.0
 11
139.0127416534364
 21
-14.14921787405001
 31
0.0
  0
LINE
  5
209
330
6F
100
AcDbEntity
  8
bottom_outsideCutPath
100
AcDbLine
 10
139.0127416534364
 20
-14.14921787405001
 30
0.0
 11
124.3827416534364
 21
-14.14921787405001
 31
0.0
  0
LINE
  5
20A
330
6F
100
AcDbEntity
  8
bottom_outsideCutPath
100
AcDbLine
 10
124.3827416534364
 20
-14.14921787405001
 30
0.0
 11
124.3827416534364
 21
-8.649217874050009
 31
0.0
  0
LINE
  5
20B
330
6F
100
AcDbEntity
  8
bottom_outsideCutPath
100
AcDbLine
 10
124.3827416534364
 20
-8.649217874050009
 30
0.0
 11
109.7527416534364
 21
-8.649217874050009
 31
0.0
  0
LINE
  5
20C
330
6F
100
AcDbEntity
  8
bottom_outsideCutPath
100
AcDbLine
 10
109.7527416534364
 20
-8.649217874050009
 30
0.0
 11
109.7527416534364
 21
-14.14921787405001
 31
0.0
  0
LINE
  5
20D
330
6F
100
AcDbEntity
  8
bottom_outsideCutPath
100
AcDbLine
 10
109.7527416534364
 20
-14.14921787405001
 30
0.0
 11
95.12274165343644
 21
-14.14921787405001
 31
0.0
  0
LINE
  5
20E
330
6F
100
AcDbEntity
  8
bottom_outsideCutPath
100
AcDbLine
 10
95.12274165343644
 20
-14.14921787405001
 30
0.0
 11
95.12274165343644
 21
-8.649217874050009
 31
0.0
  0
LINE
  5
20F
330
6F
100
AcDbEntity
  8
bottom_outsideCutPath
100
AcDbLine
 10
95.12274165343644
 20
-8.649217874050009
 30
0.0
 11
80.49274165343645
 21
-8.649217874050009
 31
0.0
  0
LINE
  5
210
330
6F
100
AcDbEntity
  8
bottom_outsideCutPath
100
AcDbLine
 10
80.49274165343645
 20
-8.649217874050009
 30
0.0
 11
80.49274165343645
 21
-14.14921787405001
 31
0.0
  0
LINE
  5
211
330
6F
100
AcDbEntity
  8
bottom_outsideCutPath
100
AcDbLine
 10
80.49274165343645
 20
-14.14921787405001
 30
0.0
 11
65.86274165343644
 21
-14.14921787405001
 31
0.0
  0
LINE
  5
212
330
6F
100
AcDbEntity
  8
bottom_outsideCutPath
100
AcDbLine
 10
65.86274165343644
 20
-14.14921787405001
 30
0.0
 11
65.86274165343644
 21
-8.649217874050009
 31
0.0
  0
LINE
  5
213
330
6F
100
AcDbEntity
  8
bottom_outsideCutPath
100
AcDbLine
 10
65.86274165343644
 20
-8.649217874050009
 30
0.0
 11
51.23274165343644
 21
-8.649217874050009
 31
0.0
  0
LINE
  5
214
330
6F
100
AcDbEntity
  8
bottom_outsideCutPath
100
AcDbLine
 10
51.23274165343644
 20
-8.649217874050009
 30
0.0
 11
51.23274165343644
 21
-14.14921787405001
 31
0.0
  0
LINE
  5
215
330
6F
100
AcDbEntity
  8
bottom_outsideCutPath
100
AcDbLine
 10
51.23274165343644
 20
-14.14921787405001
 30
0.0
 11
36.60274165343646
 21
-14.14921787405001
 31
0.0
  0
LINE
  5
216
330
6F
100
AcDbEntity
  8
bottom_outsideCutPath
100
AcDbLine
 10
36.60274165343646
 20
-14.14921787405001
 30
0.0
 11
36.60274165343646
 21
-8.649217874050009
 31
0.0
  0
LINE
  5
217
330
6F
100
AcDbEntity
  8
bottom_outsideCutPath
100
AcDbLine
 10
36.60274165343646
 20
-8.649217874050009
 30
0.0
 11
21.97274165343646
 21
-8.649217874050009
 31
0.0
  0
LINE
  5
218
330
6F
100
AcDbEntity
  8
bottom_outsideCutPath
100
AcDbLine
 10
21.97274165343646
 20
-8.649217874050009
 30
0.0
 11
21.97274165343646
 21
-14.14921787405001
 31
0.0
  0
LINE
  5
219
330
6F
100
AcDbEntity
  8
bottom_outsideCutPath
100
AcDbLine
 10
21.97274165343646
 20
-14.14921787405001
 30
0.0
 11
7.342741653436405
 21
-14.14921787405001
 31
0.0
  0
LINE
  5
21A
330
6F
100
AcDbEntity
  8
bottom_outsideCutPath
100
AcDbLine
 10
7.342741653436405
 20
-14.14921787405001
 30
0.0
 11
2.437741653436432
 21
-14.14921787405001
 31
0.0
  0
LINE
  5
22A
330
6F
100
AcDbEntity
  8
0
  6
Continuous
100
AcDbLine
 10
167.4999999999999
 20
288.25
 30
0.0
 11
43.5
 21
288.25
 31
0.0
  0
LINE
  5
22B
330
6F
100
AcDbEntity
  8
0
  6
Continuous
100
AcDbLine
 10
43.5
 20
288.25
 30
0.0
 11
43.5
 21
206.7499999999998
 31
0.0
  0
LINE
  5
22C
330
6F
100
AcDbEntity
  8
0
  6
Continuous
100
AcDbLine
 10
43.5
 20
206.7499999999998
 30
0.0
 11
167.4999999999999
 21
206.7499999999998
 31
0.0
  0
LINE
  5
22D
330
6F
100
AcDbEntity
  8
0
  6
Continuous
100
AcDbLine
 10
167.4999999999999
 20
206.7499999999998
 30
0.0
 11
167.4999999999999
 21
288.25
 31
0.0
  0
CIRCLE
  5
2D5
330
6F
100
AcDbEntity
  8
0
  6
Continuous
100
AcDbCircle
 10
234.7690418154071
 20
247.5004495882023
 30
0.0
 40
3.5
  0
CIRCLE
  5
2D6
330
6F
100
AcDbEntity
  8
0
  6
Continuous
100
AcDbCircle
 10
234.7690418154071
 20
83.50044958820229
 30
0.0
 40
3.5
  0
ENDSEC
  0
SECTION
  2
OBJECTS
  0
DICTIONARY
  5
C
330
0
100
AcDbDictionary
281
     1
  3
ACAD_CIP_PREVIOUS_PRODUCT_INFO
350
21C
  3
ACAD_COLOR
350
62
  3
ACAD_DETAILVIEWSTYLE
350
69
  3
ACAD_GROUP
350
D
  3
ACAD_LAYOUT
350
61
  3
ACAD_MATERIAL
350
10
  3
ACAD_MLEADERSTYLE
350
65
  3
ACAD_MLINESTYLE
350
5E
  3
ACAD_PLOTSETTINGS
350
60
  3
ACAD_PLOTSTYLENAME
350
E
  3
ACAD_SCALELIST
350
42
  3
ACAD_SECTIONVIEWSTYLE
350
67
  3
ACAD_TABLESTYLE
350
63
  3
ACAD_VISUALSTYLE
350
29
  3
ACDB_RECOMPOSE_DATA
350
303
  3
AcDbVariableDictionary
350
2EC
  0
DICTIONARY
  5
21E
330
2
100
AcDbDictionary
280
     1
281
     1
  3
ACAD_LAYERSTATES
360
21F
  0
DICTIONARY
  5
2D7
330
54
100
AcDbDictionary
280
     1
281
     1
  3
ADSK_XREC_LAYER_RECONCILED
360
2D8
  0
DICTIONARY
  5
2D9
330
75
100
AcDbDictionary
280
     1
281
     1
  3
ADSK_XREC_LAYER_RECONCILED
360
2DA
  0
DICTIONARY
  5
2DB
330
D4
100
AcDbDictionary
280
     1
281
     1
  3
ADSK_XREC_LAYER_RECONCILED
360
2DC
  0
DICTIONARY
  5
2DD
330
109
100
AcDbDictionary
280
     1
281
     1
  3
ADSK_XREC_LAYER_RECONCILED
360
2DE
  0
DICTIONARY
  5
2DF
330
148
100
AcDbDictionary
280
     1
281
     1
  3
ADSK_XREC_LAYER_RECONCILED
360
2E0
  0
DICTIONARY
  5
2E1
330
1A7
100
AcDbDictionary
280
     1
281
     1
  3
ADSK_XREC_LAYER_RECONCILED
360
2E2
  0
DICTIONARY
  5
2E3
330
1DC
100
AcDbDictionary
280
     1
281
     1
  3
ADSK_XREC_LAYER_RECONCILED
360
2E4
  0
XRECORD
  5
21C
102
{ACAD_REACTORS
330
C
102
}
330
C
100
AcDbXrecord
280
     1
300
ACDMAC
300
2023
300

  0
DICTIONARY
  5
62
102
{ACAD_REACTORS
330
C
102
}
330
C
100
AcDbDictionary
281
     1
  0
DICTIONARY
  5
69
102
{ACAD_REACTORS
330
C
102
}
330
C
100
AcDbDictionary
281
     1
  3
Imperial24
350
6A
  0
DICTIONARY
  5
D
102
{ACAD_REACTORS
330
C
102
}
330
C
100
AcDbDictionary
281
     1
  0
DICTIONARY
  5
61
102
{ACAD_REACTORS
330
C
102
}
330
C
100
AcDbDictionary
281
     1
  3
Layout1
350
6E
  3
Model
350
72
  0
DICTIONARY
  5
10
102
{ACAD_REACTORS
330
C
102
}
330
C
100
AcDbDictionary
281
     1
  3
ByBlock
350
19
  3
ByLayer
350
11
  3
Global
350
21
  0
DICTIONARY
  5
65
102
{ACAD_REACTORS
330
C
102
}
330
C
100
AcDbDictionary
281
     1
  3
Standard
350
66
  0
DICTIONARY
  5
5E
102
{ACAD_REACTORS
330
C
102
}
330
C
100
AcDbDictionary
281
     1
  3
Standard
350
5F
  0
DICTIONARY
  5
60
102
{ACAD_REACTORS
330
C
102
}
330
C
100
AcDbDictionary
281
     1
  0
ACDBDICTIONARYWDFLT
  5
E
102
{ACAD_REACTORS
330
C
102
}
330
C
100
AcDbDictionary
281
     1
  3
Normal
350
F
100
AcDbDictionaryWithDefault
340
F
  0
DICTIONARY
  5
42
102
{ACAD_REACTORS
330
C
102
}
330
C
100
AcDbDictionary
281
     1
  3
A0
350
43
  3
A1
350
44
  3
A2
350
45
  3
A3
350
46
  3
A4
350
47
  3
A5
350
48
  3
A6
350
49
  3
A7
350
4A
  3
A8
350
4B
  3
A9
350
4C
  3
B0
350
4D
  3
B1
350
4E
  3
B2
350
4F
  3
B3
350
50
  3
B4
350
51
  3
B5
350
52
  3
B6
350
53
  0
DICTIONARY
  5
67
102
{ACAD_REACTORS
330
C
102
}
330
C
100
AcDbDictionary
281
     1
  3
Imperial24
350
68
  0
DICTIONARY
  5
63
102
{ACAD_REACTORS
330
C
102
}
330
C
100
AcDbDictionary
281
     1
  3
Standard
350
64
  0
DICTIONARY
  5
29
102
{ACAD_REACTORS
330
C
102
}
330
C
100
AcDbDictionary
281
     1
  3
2dWireframe
350
2F
  3
Basic
350
2E
  3
Brighten
350
35
  3
ColorChange
350
39
  3
Conceptual
350
32
  3
Dim
350
34
  3
EdgeColorOff
350
41
  3
Facepattern
350
38
  3
Flat
350
2A
  3
FlatWithEdges
350
2B
  3
Gouraud
350
2C
  3
GouraudWithEdges
350
2D
  3
Hidden
350
31
  3
JitterOff
350
3F
  3
Linepattern
350
37
  3
OverhangOff
350
40
  3
Realistic
350
33
  3
Shaded
350
3E
  3
Shaded with edges
350
3D
  3
Shades of Gray
350
3A
  3
Sketchy
350
3B
  3
Thicken
350
36
  3
Wireframe
350
30
  3
X-Ray
350
3C
  0
XRECORD
  5
303
102
{ACAD_REACTORS
330
C
102
}
330
C
100
AcDbXrecord
280
     1
 90
        1
330
64
  0
DICTIONARY
  5
2EC
102
{ACAD_REACTORS
330
C
102
}
330
C
100
AcDbDictionary
281
     1
  3
CANNOSCALE
350
2F2
  3
CMLEADERSTYLE
350
2EE
  3
CTABLESTYLE
350
2ED
  3
CVIEWDETAILSTYLE
350
2EF
  3
CVIEWSECTIONSTYLE
350
2F0
  3
LAYEREVAL
350
2F4
  3
LAYERNOTIFY
350
2F5
  3
LIGHTINGUNITS
350
2F3
  3
MSLTSCALE
350
2F1
  0
DICTIONARY
  5
21F
102
{ACAD_REACTORS
330
21E
102
}
330
21E
100
AcDbDictionary
281
     1
  0
XRECORD
  5
2D8
102
{ACAD_REACTORS
330
2D7
102
}
330
2D7
100
AcDbXrecord
280
     1
290
     1
  0
XRECORD
  5
2DA
102
{ACAD_REACTORS
330
2D9
102
}
330
2D9
100
AcDbXrecord
280
     1
290
     1
  0
XRECORD
  5
2DC
102
{ACAD_REACTORS
330
2DB
102
}
330
2DB
100
AcDbXrecord
280
     1
290
     1
  0
XRECORD
  5
2DE
102
{ACAD_REACTORS
330
2DD
102
}
330
2DD
100
AcDbXrecord
280
     1
290
     1
  0
XRECORD
  5
2E0
102
{ACAD_REACTORS
330
2DF
102
}
330
2DF
100
AcDbXrecord
280
     1
290
     1
  0
XRECORD
  5
2E2
102
{ACAD_REACTORS
330
2E1
102
}
330
2E1
100
AcDbXrecord
280
     1
290
     1
  0
XRECORD
  5
2E4
102
{ACAD_REACTORS
330
2E3
102
}
330
2E3
100
AcDbXrecord
280
     1
290
     1
  0
ACDBDETAILVIEWSTYLE
  5
6A
102
{ACAD_REACTORS
330
69
102
}
330
69
100
AcDbModelDocViewStyle
 70
     0
  3
Imperial24
290
     0
300
Imperial24
 90
        0
100
AcDbDetailViewStyle
 70
     0
 71
     0
 90
        3
 71
     1
340
55
 62
   256
 40
0.24
340
0
 62
   256
 40
0.24
300

 40
0.36
280
     3
 71
     2
340
5C
 90
       25
 62
   256
 71
     3
340
55
 62
   256
 40
0.24
 90
        1
 40
0.75
 90
        1
300
%<\AcVar ViewType \f "%tc1">% %<\AcVar ViewDetailId>%\PSCALE %<\AcVar ViewScale \f "%sn">%
 71
     4
340
5C
 90
       25
 62
   256
340
5C
 90
       25
 62
   256
280
     0
  0
LAYOUT
  5
6E
102
{ACAD_REACTORS
330
61
102
}
330
61
100
AcDbPlotSettings
  1

  2

  4

  6

 40
0.0
 41
0.0
 42
0.0
 43
0.0
 44
0.0
 45
0.0
 46
0.0
 47
0.0
 48
0.0
 49
0.0
140
0.0
141
0.0
142
1.0
143
1.0
 70
   688
 72
     0
 73
     0
 74
     5
  7

 75
    16
147
1.0
 76
     0
 77
     2
 78
   300
148
0.0
149
0.0
100
AcDbLayout
  1
Layout1
 70
     1
 71
     1
 10
0.0
 20
0.0
 11
12.0
 21
9.0
 12
0.0
 22
0.0
 32
0.0
 14
1.000000000000000E+20
 24
1.000000000000000E+20
 34
1.000000000000000E+20
 15
-1.000000000000000E+20
 25
-1.000000000000000E+20
 35
-1.000000000000000E+20
146
0.0
 13
0.0
 23
0.0
 33
0.0
 16
1.0
 26
0.0
 36
0.0
 17
0.0
 27
1.0
 37
0.0
 76
     0
330
6B
  0
LAYOUT
  5
72
102
{ACAD_REACTORS
330
61
102
}
330
61
100
AcDbPlotSettings
  1

  2

  4

  6

 40
0.0
 41
0.0
 42
0.0
 43
0.0
 44
0.0
 45
0.0
 46
0.0
 47
0.0
 48
0.0
 49
0.0
140
0.0
141
0.0
142
1.0
143
1.0
 70
  1712
 72
     0
 73
     0
 74
     0
  7

 75
     0
147
1.0
 76
     0
 77
     2
 78
   300
148
0.0
149
0.0
100
AcDbLayout
  1
Model
 70
     1
 71
     0
 10
0.0
 20
0.0
 11
12.0
 21
9.0
 12
0.0
 22
0.0
 32
0.0
 14
0.0
 24
0.0
 34
0.0
 15
0.0
 25
0.0
 35
0.0
146
0.0
 13
0.0
 23
0.0
 33
0.0
 16
1.0
 26
0.0
 36
0.0
 17
0.0
 27
1.0
 37
0.0
 76
     0
330
6F
331
74
  0
MATERIAL
  5
19
102
{ACAD_XDICTIONARY
360
1A
102
}
102
{ACAD_REACTORS
330
10
102
}
330
10
100
AcDbMaterial
  1
ByBlock
 72
     0
 43
0.0208333333333333
 43
0.0
 43
0.0
 43
0.0
 43
0.0
 43
0.0208333333333333
 43
0.0
 43
0.0
 43
0.0
 43
0.0
 43
1.0
 43
0.0
 43
0.0
 43
0.0
 43
0.0
 43
1.0
 77
     0
 47
0.0208333333333333
 47
0.0
 47
0.0
 47
0.0
 47
0.0
 47
0.0208333333333333
 47
0.0
 47
0.0
 47
0.0
 47
0.0
 47
1.0
 47
0.0
 47
0.0
 47
0.0
 47
0.0
 47
1.0
171
     0
 49
0.0208333333333333
 49
0.0
 49
0.0
 49
0.0
 49
0.0
 49
0.0208333333333333
 49
0.0
 49
0.0
 49
0.0
 49
0.0
 49
1.0
 49
0.0
 49
0.0
 49
0.0
 49
0.0
 49
1.0
175
     0
142
0.0208333333333333
142
0.0
142
0.0
142
0.0
142
0.0
142
0.0208333333333333
142
0.0
142
0.0
142
0.0
142
0.0
142
1.0
142
0.0
142
0.0
142
0.0
142
0.0
142
1.0
179
     0
144
0.0208333333333333
144
0.0
144
0.0
144
0.0
144
0.0
144
0.0208333333333333
144
0.0
144
0.0
144
0.0
144
0.0
144
1.0
144
0.0
144
0.0
144
0.0
144
0.0
144
1.0
147
0.0208333333333333
147
0.0
147
0.0
147
0.0
147
0.0
147
0.0208333333333333
147
0.0
147
0.0
147
0.0
147
0.0
147
1.0
147
0.0
147
0.0
147
0.0
147
0.0
147
1.0
  0
MATERIAL
  5
11
102
{ACAD_XDICTIONARY
360
12
102
}
102
{ACAD_REACTORS
330
10
102
}
330
10
100
AcDbMaterial
  1
ByLayer
 72
     0
 43
0.0208333333333333
 43
0.0
 43
0.0
 43
0.0
 43
0.0
 43
0.0208333333333333
 43
0.0
 43
0.0
 43
0.0
 43
0.0
 43
1.0
 43
0.0
 43
0.0
 43
0.0
 43
0.0
 43
1.0
 77
     0
 47
0.0208333333333333
 47
0.0
 47
0.0
 47
0.0
 47
0.0
 47
0.0208333333333333
 47
0.0
 47
0.0
 47
0.0
 47
0.0
 47
1.0
 47
0.0
 47
0.0
 47
0.0
 47
0.0
 47
1.0
171
     0
 49
0.0208333333333333
 49
0.0
 49
0.0
 49
0.0
 49
0.0
 49
0.0208333333333333
 49
0.0
 49
0.0
 49
0.0
 49
0.0
 49
1.0
 49
0.0
 49
0.0
 49
0.0
 49
0.0
 49
1.0
175
     0
142
0.0208333333333333
142
0.0
142
0.0
142
0.0
142
0.0
142
0.0208333333333333
142
0.0
142
0.0
142
0.0
142
0.0
142
1.0
142
0.0
142
0.0
142
0.0
142
0.0
142
1.0
179
     0
144
0.0208333333333333
144
0.0
144
0.0
144
0.0
144
0.0
144
0.0208333333333333
144
0.0
144
0.0
144
0.0
144
0.0
144
1.0
144
0.0
144
0.0
144
0.0
144
0.0
144
1.0
147
0.0208333333333333
147
0.0
147
0.0
147
0.0
147
0.0
147
0.0208333333333333
147
0.0
147
0.0
147
0.0
147
0.0
147
1.0
147
0.0
147
0.0
147
0.0
147
0.0
147
1.0
  0
MATERIAL
  5
21
102
{ACAD_XDICTIONARY
360
22
102
}
102
{ACAD_REACTORS
330
10
102
}
330
10
100
AcDbMaterial
  1
Global
 72
     0
 43
0.0208333333333333
 43
0.0
 43
0.0
 43
0.0
 43
0.0
 43
0.0208333333333333
 43
0.0
 43
0.0
 43
0.0
 43
0.0
 43
1.0
 43
0.0
 43
0.0
 43
0.0
 43
0.0
 43
1.0
 77
     0
 47
0.0208333333333333
 47
0.0
 47
0.0
 47
0.0
 47
0.0
 47
0.0208333333333333
 47
0.0
 47
0.0
 47
0.0
 47
0.0
 47
1.0
 47
0.0
 47
0.0
 47
0.0
 47
0.0
 47
1.0
171
     0
 49
0.0208333333333333
 49
0.0
 49
0.0
 49
0.0
 49
0.0
 49
0.0208333333333333
 49
0.0
 49
0.0
 49
0.0
 49
0.0
 49
1.0
 49
0.0
 49
0.0
 49
0.0
 49
0.0
 49
1.0
175
     0
142
0.0208333333333333
142
0.0
142
0.0
142
0.0
142
0.0
142
0.0208333333333333
142
0.0
142
0.0
142
0.0
142
0.0
142
1.0
142
0.0
142
0.0
142
0.0
142
0.0
142
1.0
179
     0
144
0.0208333333333333
144
0.0
144
0.0
144
0.0
144
0.0
144
0.0208333333333333
144
0.0
144
0.0
144
0.0
144
0.0
144
1.0
144
0.0
144
0.0
144
0.0
144
0.0
144
1.0
147
0.0208333333333333
147
0.0
147
0.0
147
0.0
147
0.0
147
0.0208333333333333
147
0.0
147
0.0
147
0.0
147
0.0
147
1.0
147
0.0
147
0.0
147
0.0
147
0.0
147
1.0
  0
MLEADERSTYLE
  5
66
102
{ACAD_REACTORS
330
65
102
}
330
65
100
AcDbMLeaderStyle
179
     2
170
     2
171
     1
172
     0
 90
        2
 40
0.0
 41
0.0
173
     1
 91
-1056964608
340
5A
 92
       -2
290
     1
 42
0.09
291
     1
 43
0.36
  3
Standard
 44
0.18
300

342
55
174
     1
178
     6
175
     1
176
     0
 93
-1056964608
 45
0.18
292
     0
297
     0
 46
0.18
 94
-1056964608
 47
1.0
 49
1.0
140
1.0
293
     1
141
0.0
294
     1
177
     0
142
1.0
295
     0
296
     0
143
0.125
271
     0
272
     9
273
     9
298
     0
  0
MLINESTYLE
  5
5F
102
{ACAD_REACTORS
330
5E
102
}
330
5E
100
AcDbMlineStyle
  2
STANDARD
 70
     0
  3

 62
   256
 51
90.0
 52
90.0
 71
     2
 49
0.5
 62
   256
  6
BYLAYER
 49
-0.5
 62
   256
  6
BYLAYER
  0
ACDBPLACEHOLDER
  5
F
102
{ACAD_REACTORS
330
E
102
}
330
E
  0
SCALE
  5
43
102
{ACAD_REACTORS
330
42
102
}
330
42
100
AcDbScale
 70
     0
300
1:1
140
1.0
141
1.0
290
     1
  0
SCALE
  5
44
102
{ACAD_REACTORS
330
42
102
}
330
42
100
AcDbScale
 70
     0
300
1/128" = 1'-0"
140
0.0078125
141
12.0
290
     0
  0
SCALE
  5
45
102
{ACAD_REACTORS
330
42
102
}
330
42
100
AcDbScale
 70
     0
300
1/64" = 1'-0"
140
0.015625
141
12.0
290
     0
  0
SCALE
  5
46
102
{ACAD_REACTORS
330
42
102
}
330
42
100
AcDbScale
 70
     0
300
1/32" = 1'-0"
140
0.03125
141
12.0
290
     0
  0
SCALE
  5
47
102
{ACAD_REACTORS
330
42
102
}
330
42
100
AcDbScale
 70
     0
300
1/16" = 1'-0"
140
0.0625
141
12.0
290
     0
  0
SCALE
  5
48
102
{ACAD_REACTORS
330
42
102
}
330
42
100
AcDbScale
 70
     0
300
3/32" = 1'-0"
140
0.09375
141
12.0
290
     0
  0
SCALE
  5
49
102
{ACAD_REACTORS
330
42
102
}
330
42
100
AcDbScale
 70
     0
300
1/8" = 1'-0"
140
0.125
141
12.0
290
     0
  0
SCALE
  5
4A
102
{ACAD_REACTORS
330
42
102
}
330
42
100
AcDbScale
 70
     0
300
3/16" = 1'-0"
140
0.1875
141
12.0
290
     0
  0
SCALE
  5
4B
102
{ACAD_REACTORS
330
42
102
}
330
42
100
AcDbScale
 70
     0
300
1/4" = 1'-0"
140
0.25
141
12.0
290
     0
  0
SCALE
  5
4C
102
{ACAD_REACTORS
330
42
102
}
330
42
100
AcDbScale
 70
     0
300
3/8" = 1'-0"
140
0.375
141
12.0
290
     0
  0
SCALE
  5
4D
102
{ACAD_REACTORS
330
42
102
}
330
42
100
AcDbScale
 70
     0
300
1/2" = 1'-0"
140
0.5
141
12.0
290
     0
  0
SCALE
  5
4E
102
{ACAD_REACTORS
330
42
102
}
330
42
100
AcDbScale
 70
     0
300
3/4" = 1'-0"
140
0.75
141
12.0
290
     0
  0
SCALE
  5
4F
102
{ACAD_REACTORS
330
42
102
}
330
42
100
AcDbScale
 70
     0
300
1" = 1'-0"
140
1.0
141
12.0
290
     0
  0
SCALE
  5
50
102
{ACAD_REACTORS
330
42
102
}
330
42
100
AcDbScale
 70
     0
300
1-1/2" = 1'-0"
140
1.5
141
12.0
290
     0
  0
SCALE
  5
51
102
{ACAD_REACTORS
330
42
102
}
330
42
100
AcDbScale
 70
     0
300
3" = 1'-0"
140
3.0
141
12.0
290
     0
  0
SCALE
  5
52
102
{ACAD_REACTORS
330
42
102
}
330
42
100
AcDbScale
 70
     0
300
6" = 1'-0"
140
6.0
141
12.0
290
     0
  0
SCALE
  5
53
102
{ACAD_REACTORS
330
42
102
}
330
42
100
AcDbScale
 70
     0
300
1'-0" = 1'-0"
140
12.0
141
12.0
290
     0
  0
ACDBSECTIONVIEWSTYLE
  5
68
102
{ACAD_REACTORS
330
67
102
}
330
67
100
AcDbModelDocViewStyle
 70
     0
  3
Imperial24
290
     0
300
Imperial24
 90
        0
100
AcDbSectionViewStyle
 70
     0
 71
     0
 90
       78
 71
     1
340
55
 62
   256
 40
0.24
340
0
340
0
 62
   256
 40
0.24
300
I, O, Q, S, X, Z
 40
0.48
 90
        3
 40
0.18
 90
        1
 71
     2
340
5C
 90
       25
 62
   256
340
5C
 90
       50
 62
   256
 40
0.24
 40
0.0
 40
0.24
 71
     3
340
55
 62
   256
 40
0.24
 90
        1
 40
0.75
 90
        1
300
%<\AcVar ViewType \f "%tc1">% %<\AcVar ViewSectionStartId>%-%<\AcVar ViewSectionEndId>%\PSCALE %<\AcVar ViewScale \f "%sn">%
 71
     4
 62
   256
 62
   257
300
ANSI31
 40
1.0
 90
        0
290
     0
290
     0
 90
        6
 40
0.0
 40
1.570796326794896
 40
0.2617993877991494
 40
1.308996938995747
 40
-0.2617993877991494
 40
1.832595714594046
  0
TABLESTYLE
  5
64
102
{ACAD_XDICTIONARY
360
301
102
}
102
{ACAD_REACTORS
330
63
102
}
330
63
100
AcDbTableStyle
280
     0
  3
Standard
 70
     0
 71
     0
 40
0.06
 41
0.06
280
     0
281
     0
  7
Standard
140
0.18
170
     2
 62
     0
 63
     7
283
     0
 90
      512
 91
        0
  1

274
    -2
284
     1
 64
     0
275
    -2
285
     1
 65
     0
276
    -2
286
     1
 66
     0
277
    -2
287
     1
 67
     0
278
    -2
288
     1
 68
     0
279
    -2
289
     1
 69
     0
  7
Standard
140
0.25
170
     5
 62
     0
 63
     7
283
     0
 90
      512
 91
        0
  1

274
    -2
284
     1
 64
     0
275
    -2
285
     1
 65
     0
276
    -2
286
     1
 66
     0
277
    -2
287
     1
 67
     0
278
    -2
288
     1
 68
     0
279
    -2
289
     1
 69
     0
  7
Standard
140
0.18
170
     5
 62
     0
 63
     7
283
     0
 90
      512
 91
        0
  1

274
    -2
284
     1
 64
     0
275
    -2
285
     1
 65
     0
276
    -2
286
     1
 66
     0
277
    -2
287
     1
 67
     0
278
    -2
288
     1
 68
     0
279
    -2
289
     1
 69
     0
  0
VISUALSTYLE
  5
2F
102
{ACAD_REACTORS
330
29
102
}
330
29
100
AcDbVisualStyle
  2
2dWireframe
 70
     4
177
     3
291
     0
 70
    58
 90
        0
176
     1
 90
        2
176
     1
 90
        0
176
     1
 90
        0
176
     1
 40
0.6
176
     1
 40
30.0
176
     1
 62
     7
420
 16777215
176
     1
 90
        1
176
     1
 90
        4
176
     1
 62
     7
176
     1
 62
   257
176
     1
 90
        1
176
     1
 90
        1
176
     1
 40
1.0
176
     1
 90
        0
176
     1
 62
   257
176
     1
 40
1.0
176
     1
 90
        1
176
     1
 90
        6
176
     1
 90
        2
176
     1
 62
     7
176
     1
 90
        5
176
     1
 90
        0
176
     1
 90
        0
176
     1
290
     0
176
     1
 90
        1
176
     1
 40
0.0
176
     1
 90
        0
176
     1
290
     1
176
     1
290
     1
176
     1
290
     0
176
     1
290
     0
176
     1
290
     0
176
     1
290
     0
176
     1
290
     0
176
     1
290
     0
176
     1
290
     0
176
     1
 90
       50
176
     1
 40
0.0
176
     1
 40
1.0
176
     1
 90
        0
176
     1
 62
    18
420
        0
176
     1
 90
       50
176
     1
 90
        3
176
     1
 62
     5
420
      255
176
     1
290
     0
176
     1
 90
       50
176
     1
 90
       50
176
     1
 90
       50
176
     1
290
     0
176
     1
 90
       50
176
     1
 62
   256
176
     0
 40
1.0
176
     0
 90
        2
176
     1
  1
strokes_ogs.tif
176
     1
290
     0
176
     1
 40
1.0
176
     1
 40
1.0
176
     1
  0
VISUALSTYLE
  5
2E
102
{ACAD_REACTORS
330
29
102
}
330
29
100
AcDbVisualStyle
  2
Basic
 70
     7
177
     3
291
     1
 70
    58
 90
        1
176
     1
 90
        0
176
     1
 90
        1
176
     1
 90
        0
176
     1
 40
0.6
176
     1
 40
30.0
176
     1
 62
     7
420
 16777215
176
     1
 90
        0
176
     1
 90
        4
176
     1
 62
     7
176
     1
 62
   257
176
     1
 90
        1
176
     1
 90
        1
176
     1
 40
1.0
176
     1
 90
        8
176
     1
 62
     7
176
     1
 40
1.0
176
     1
 90
        1
176
     1
 90
        6
176
     1
 90
        2
176
     1
 62
     7
176
     1
 90
        5
176
     1
 90
        0
176
     1
 90
        0
176
     1
290
     0
176
     1
 90
        1
176
     1
 40
0.0
176
     1
 90
        0
176
     1
290
     0
176
     1
290
     1
176
     1
290
     1
176
     1
290
     0
176
     1
290
     0
176
     1
290
     0
176
     1
290
     0
176
     1
290
     0
176
     1
290
     0
176
     1
 90
       50
176
     1
 40
0.0
176
     1
 40
1.0
176
     1
 90
        0
176
     1
 62
    18
420
        0
176
     1
 90
       50
176
     1
 90
        3
176
     1
 62
     5
420
      255
176
     1
290
     0
176
     1
 90
       50
176
     1
 90
       50
176
     1
 90
       50
176
     1
290
     0
176
     1
 90
       50
176
     1
 62
   256
176
     0
 40
1.0
176
     0
 90
        2
176
     1
  1
strokes_ogs.tif
176
     1
290
     0
176
     1
 40
1.0
176
     1
 40
1.0
176
     1
  0
VISUALSTYLE
  5
35
102
{ACAD_REACTORS
330
29
102
}
330
29
100
AcDbVisualStyle
  2
Brighten
 70
    12
177
     3
291
     1
 70
    58
 90
        2
176
     1
 90
        2
176
     1
 90
        0
176
     1
 90
        0
176
     1
 40
0.6
176
     1
 40
30.0
176
     1
 62
     7
420
 16777215
176
     1
 90
        1
176
     1
 90
        4
176
     1
 62
     7
176
     1
 62
   257
176
     1
 90
        1
176
     1
 90
        1
176
     1
 40
1.0
176
     1
 90
        8
176
     1
 62
     7
176
     1
 40
1.0
176
     1
 90
        1
176
     1
 90
        6
176
     1
 90
        2
176
     1
 62
     7
176
     1
 90
        5
176
     1
 90
        0
176
     1
 90
        0
176
     1
290
     0
176
     1
 90
        1
176
     1
 40
50.0
176
     1
 90
        0
176
     1
290
     0
176
     1
290
     1
176
     1
290
     1
176
     1
290
     0
176
     1
290
     0
176
     1
290
     0
176
     1
290
     0
176
     1
290
     0
176
     1
290
     0
176
     1
 90
       50
176
     1
 40
0.0
176
     1
 40
1.0
176
     1
 90
        0
176
     1
 62
    18
420
        0
176
     1
 90
       50
176
     1
 90
        3
176
     1
 62
     5
420
      255
176
     1
290
     0
176
     1
 90
       50
176
     1
 90
       50
176
     1
 90
       50
176
     1
290
     0
176
     1
 90
       50
176
     1
 62
   256
176
     0
 40
1.0
176
     0
 90
        2
176
     1
  1
strokes_ogs.tif
176
     1
290
     0
176
     1
 40
1.0
176
     1
 40
1.0
176
     1
  0
VISUALSTYLE
  5
39
102
{ACAD_REACTORS
330
29
102
}
330
29
100
AcDbVisualStyle
  2
ColorChange
 70
    16
177
     3
291
     1
 70
    58
 90
        2
176
     1
 90
        2
176
     1
 90
        3
176
     1
 90
        0
176
     1
 40
0.6
176
     1
 40
30.0
176
     1
 62
     8
420
  8421504
176
     1
 90
        1
176
     1
 90
        4
176
     1
 62
     7
176
     1
 62
   257
176
     1
 90
        1
176
     1
 90
        1
176
     1
 40
1.0
176
     1
 90
        8
176
     1
 62
     8
420
  8421504
176
     1
 40
1.0
176
     1
 90
        1
176
     1
 90
        6
176
     1
 90
        2
176
     1
 62
     7
176
     1
 90
        5
176
     1
 90
        0
176
     1
 90
        0
176
     1
290
     0
176
     1
 90
        1
176
     1
 40
0.0
176
     1
 90
        0
176
     1
290
     0
176
     1
290
     1
176
     1
290
     1
176
     1
290
     0
176
     1
290
     0
176
     1
290
     0
176
     1
290
     0
176
     1
290
     0
176
     1
290
     0
176
     1
 90
       50
176
     1
 40
0.0
176
     1
 40
1.0
176
     1
 90
        0
176
     1
 62
    18
420
        0
176
     1
 90
       50
176
     1
 90
        3
176
     1
 62
     5
420
      255
176
     1
290
     0
176
     1
 90
       50
176
     1
 90
       50
176
     1
 90
       50
176
     1
290
     0
176
     1
 90
       50
176
     1
 62
   256
176
     0
 40
1.0
176
     0
 90
        2
176
     1
  1
strokes_ogs.tif
176
     1
290
     0
176
     1
 40
1.0
176
     1
 40
1.0
176
     1
  0
VISUALSTYLE
  5
32
102
{ACAD_REACTORS
330
29
102
}
330
29
100
AcDbVisualStyle
  2
Conceptual
 70
     9
177
     3
291
     0
 70
    58
 90
        3
176
     1
 90
        2
176
     1
 90
        0
176
     1
 90
        0
176
     1
 40
0.6
176
     1
 40
30.0
176
     1
 62
     7
420
 16777215
176
     1
 90
        2
176
     1
 90
        2
176
     1
 62
     7
176
     1
 62
   257
176
     1
 90
        1
176
     1
 90
        1
176
     1
 40
179.0
176
     1
 90
        8
176
     1
 62
     7
176
     1
 40
1.0
176
     1
 90
        1
176
     1
 90
        6
176
     1
 90
        2
176
     1
 62
     7
176
     1
 90
        3
176
     1
 90
        0
176
     1
 90
        0
176
     1
290
     0
176
     1
 90
        1
176
     1
 40
0.0
176
     1
 90
        0
176
     1
290
     0
176
     1
290
     1
176
     1
290
     1
176
     1
290
     0
176
     1
290
     0
176
     1
290
     0
176
     1
290
     0
176
     1
290
     0
176
     1
290
     0
176
     1
 90
       50
176
     1
 40
0.0
176
     1
 40
1.0
176
     1
 90
        0
176
     1
 62
    18
420
        0
176
     1
 90
       50
176
     1
 90
        3
176
     1
 62
     5
420
      255
176
     1
290
     0
176
     1
 90
       50
176
     1
 90
       50
176
     1
 90
       50
176
     1
290
     0
176
     1
 90
       50
176
     1
 62
   256
176
     0
 40
1.0
176
     0
 90
        2
176
     1
  1
strokes_ogs.tif
176
     1
290
     0
176
     1
 40
1.0
176
     1
 40
1.0
176
     1
  0
VISUALSTYLE
  5
34
102
{ACAD_REACTORS
330
29
102
}
330
29
100
AcDbVisualStyle
  2
Dim
 70
    11
177
     3
291
     1
 70
    58
 90
        2
176
     1
 90
        2
176
     1
 90
        0
176
     1
 90
        0
176
     1
 40
0.6
176
     1
 40
30.0
176
     1
 62
     7
420
 16777215
176
     1
 90
        1
176
     1
 90
        4
176
     1
 62
     7
176
     1
 62
   257
176
     1
 90
        1
176
     1
 90
        1
176
     1
 40
1.0
176
     1
 90
        8
176
     1
 62
     7
176
     1
 40
1.0
176
     1
 90
        1
176
     1
 90
        6
176
     1
 90
        2
176
     1
 62
     7
176
     1
 90
        5
176
     1
 90
        0
176
     1
 90
        0
176
     1
290
     0
176
     1
 90
        1
176
     1
 40
-50.0
176
     1
 90
        0
176
     1
290
     0
176
     1
290
     1
176
     1
290
     1
176
     1
290
     0
176
     1
290
     0
176
     1
290
     0
176
     1
290
     0
176
     1
290
     0
176
     1
290
     0
176
     1
 90
       50
176
     1
 40
0.0
176
     1
 40
1.0
176
     1
 90
        0
176
     1
 62
    18
420
        0
176
     1
 90
       50
176
     1
 90
        3
176
     1
 62
     5
420
      255
176
     1
290
     0
176
     1
 90
       50
176
     1
 90
       50
176
     1
 90
       50
176
     1
290
     0
176
     1
 90
       50
176
     1
 62
   256
176
     0
 40
1.0
176
     0
 90
        2
176
     1
  1
strokes_ogs.tif
176
     1
290
     0
176
     1
 40
1.0
176
     1
 40
1.0
176
     1
  0
VISUALSTYLE
  5
41
102
{ACAD_REACTORS
330
29
102
}
330
29
100
AcDbVisualStyle
  2
EdgeColorOff
 70
    22
177
     3
291
     1
 70
    58
 90
        2
176
     0
 90
        2
176
     0
 90
        0
176
     0
 90
        0
176
     0
 40
0.6
176
     0
 40
30.0
176
     0
 62
     7
420
 16777215
176
     0
 90
        1
176
     0
 90
        4
176
     0
 62
     7
176
     0
 62
   257
176
     0
 90
        1
176
     0
 90
        1
176
     0
 40
1.0
176
     0
 90
        8
176
     2
 62
     7
176
     0
 40
1.0
176
     0
 90
        1
176
     0
 90
        6
176
     0
 90
        2
176
     0
 62
     7
176
     0
 90
        5
176
     0
 90
        0
176
     0
 90
        0
176
     0
290
     0
176
     0
 90
        1
176
     0
 40
0.0
176
     0
 90
        0
176
     0
290
     0
176
     1
290
     1
176
     1
290
     1
176
     1
290
     0
176
     1
290
     0
176
     1
290
     0
176
     1
290
     0
176
     1
290
     0
176
     1
290
     0
176
     1
 90
       50
176
     0
 40
0.0
176
     0
 40
1.0
176
     0
 90
        0
176
     0
 62
    18
420
        0
176
     0
 90
       50
176
     0
 90
        3
176
     0
 62
     5
420
      255
176
     0
290
     0
176
     1
 90
       50
176
     0
 90
       50
176
     0
 90
       50
176
     0
290
     0
176
     1
 90
       50
176
     0
 62
   256
176
     0
 40
1.0
176
     0
 90
        2
176
     0
  1
strokes_ogs.tif
176
     0
290
     0
176
     1
 40
1.0
176
     0
 40
1.0
176
     0
  0
VISUALSTYLE
  5
38
102
{ACAD_REACTORS
330
29
102
}
330
29
100
AcDbVisualStyle
  2
Facepattern
 70
    15
177
     3
291
     1
 70
    58
 90
        2
176
     1
 90
        2
176
     1
 90
        0
176
     1
 90
        0
176
     1
 40
0.6
176
     1
 40
30.0
176
     1
 62
     7
420
 16777215
176
     1
 90
        1
176
     1
 90
        4
176
     1
 62
     7
176
     1
 62
   257
176
     1
 90
        1
176
     1
 90
        1
176
     1
 40
1.0
176
     1
 90
        8
176
     1
 62
     7
176
     1
 40
1.0
176
     1
 90
        1
176
     1
 90
        6
176
     1
 90
        2
176
     1
 62
     7
176
     1
 90
        5
176
     1
 90
        0
176
     1
 90
        0
176
     1
290
     0
176
     1
 90
        1
176
     1
 40
0.0
176
     1
 90
        0
176
     1
290
     0
176
     1
290
     1
176
     1
290
     1
176
     1
290
     0
176
     1
290
     0
176
     1
290
     0
176
     1
290
     0
176
     1
290
     0
176
     1
290
     0
176
     1
 90
       50
176
     1
 40
0.0
176
     1
 40
1.0
176
     1
 90
        0
176
     1
 62
    18
420
        0
176
     1
 90
       50
176
     1
 90
        3
176
     1
 62
     5
420
      255
176
     1
290
     0
176
     1
 90
       50
176
     1
 90
       50
176
     1
 90
       50
176
     1
290
     0
176
     1
 90
       50
176
     1
 62
   256
176
     0
 40
1.0
176
     0
 90
        2
176
     1
  1
strokes_ogs.tif
176
     1
290
     0
176
     1
 40
1.0
176
     1
 40
1.0
176
     1
  0
VISUALSTYLE
  5
2A
102
{ACAD_REACTORS
330
29
102
}
330
29
100
AcDbVisualStyle
  2
Flat
 70
     0
177
     3
291
     1
 70
    58
 90
        2
176
     1
 90
        1
176
     1
 90
        1
176
     1
 90
        2
176
     1
 40
0.6
176
     1
 40
30.0
176
     1
 62
     7
420
 16777215
176
     1
 90
        0
176
     1
 90
        0
176
     1
 62
     7
176
     1
 62
   257
176
     1
 90
        1
176
     1
 90
        1
176
     1
 40
1.0
176
     1
 90
        8
176
     1
 62
     7
176
     1
 40
1.0
176
     1
 90
        1
176
     1
 90
        6
176
     1
 90
        2
176
     1
 62
     7
176
     1
 90
        5
176
     1
 90
        0
176
     1
 90
        0
176
     1
290
     0
176
     1
 90
       13
176
     1
 40
0.0
176
     1
 90
        0
176
     1
290
     0
176
     1
290
     1
176
     1
290
     1
176
     1
290
     0
176
     1
290
     0
176
     1
290
     0
176
     1
290
     0
176
     1
290
     0
176
     1
290
     0
176
     1
 90
       50
176
     1
 40
0.0
176
     1
 40
1.0
176
     1
 90
        0
176
     1
 62
    18
420
        0
176
     1
 90
       50
176
     1
 90
        3
176
     1
 62
     5
420
      255
176
     1
290
     0
176
     1
 90
       50
176
     1
 90
       50
176
     1
 90
       50
176
     1
290
     0
176
     1
 90
       50
176
     1
 62
   256
176
     0
 40
1.0
176
     0
 90
        2
176
     1
  1
strokes_ogs.tif
176
     1
290
     0
176
     1
 40
1.0
176
     1
 40
1.0
176
     1
  0
VISUALSTYLE
  5
2B
102
{ACAD_REACTORS
330
29
102
}
330
29
100
AcDbVisualStyle
  2
FlatWithEdges
 70
     1
177
     3
291
     1
 70
    58
 90
        2
176
     1
 90
        1
176
     1
 90
        1
176
     1
 90
        2
176
     1
 40
0.6
176
     1
 40
30.0
176
     1
 62
     7
420
 16777215
176
     1
 90
        1
176
     1
 90
        0
176
     1
 62
     7
176
     1
 62
   257
176
     1
 90
        1
176
     1
 90
        1
176
     1
 40
1.0
176
     1
 90
        0
176
     1
 62
   257
176
     1
 40
1.0
176
     1
 90
        1
176
     1
 90
        6
176
     1
 90
        2
176
     1
 62
     7
176
     1
 90
        5
176
     1
 90
        0
176
     1
 90
        0
176
     1
290
     0
176
     1
 90
       13
176
     1
 40
0.0
176
     1
 90
        0
176
     1
290
     0
176
     1
290
     1
176
     1
290
     1
176
     1
290
     0
176
     1
290
     0
176
     1
290
     0
176
     1
290
     0
176
     1
290
     0
176
     1
290
     0
176
     1
 90
       50
176
     1
 40
0.0
176
     1
 40
1.0
176
     1
 90
        0
176
     1
 62
    18
420
        0
176
     1
 90
       50
176
     1
 90
        3
176
     1
 62
     5
420
      255
176
     1
290
     0
176
     1
 90
       50
176
     1
 90
       50
176
     1
 90
       50
176
     1
290
     0
176
     1
 90
       50
176
     1
 62
   256
176
     0
 40
1.0
176
     0
 90
        2
176
     1
  1
strokes_ogs.tif
176
     1
290
     0
176
     1
 40
1.0
176
     1
 40
1.0
176
     1
  0
VISUALSTYLE
  5
2C
102
{ACAD_REACTORS
330
29
102
}
330
29
100
AcDbVisualStyle
  2
Gouraud
 70
     2
177
     3
291
     1
 70
    58
 90
        2
176
     1
 90
        2
176
     1
 90
        1
176
     1
 90
        2
176
     1
 40
0.6
176
     1
 40
30.0
176
     1
 62
     7
420
 16777215
176
     1
 90
        0
176
     1
 90
        0
176
     1
 62
     7
176
     1
 62
   257
176
     1
 90
        1
176
     1
 90
        1
176
     1
 40
1.0
176
     1
 90
        0
176
     1
 62
     7
176
     1
 40
1.0
176
     1
 90
        1
176
     1
 90
        6
176
     1
 90
        2
176
     1
 62
     7
176
     1
 90
        5
176
     1
 90
        0
176
     1
 90
        0
176
     1
290
     0
176
     1
 90
       13
176
     1
 40
0.0
176
     1
 90
        0
176
     1
290
     0
176
     1
290
     1
176
     1
290
     1
176
     1
290
     0
176
     1
290
     0
176
     1
290
     0
176
     1
290
     0
176
     1
290
     0
176
     1
290
     0
176
     1
 90
       50
176
     1
 40
0.0
176
     1
 40
1.0
176
     1
 90
        0
176
     1
 62
    18
420
        0
176
     1
 90
       50
176
     1
 90
        3
176
     1
 62
     5
420
      255
176
     1
290
     0
176
     1
 90
       50
176
     1
 90
       50
176
     1
 90
       50
176
     1
290
     0
176
     1
 90
       50
176
     1
 62
   256
176
     0
 40
1.0
176
     0
 90
        2
176
     1
  1
strokes_ogs.tif
176
     1
290
     0
176
     1
 40
1.0
176
     1
 40
1.0
176
     1
  0
VISUALSTYLE
  5
2D
102
{ACAD_REACTORS
330
29
102
}
330
29
100
AcDbVisualStyle
  2
GouraudWithEdges
 70
     3
177
     3
291
     1
 70
    58
 90
        2
176
     1
 90
        2
176
     1
 90
        1
176
     1
 90
        2
176
     1
 40
0.6
176
     1
 40
30.0
176
     1
 62
     7
420
 16777215
176
     1
 90
        1
176
     1
 90
        0
176
     1
 62
     7
176
     1
 62
   257
176
     1
 90
        1
176
     1
 90
        1
176
     1
 40
1.0
176
     1
 90
        0
176
     1
 62
   257
176
     1
 40
1.0
176
     1
 90
        1
176
     1
 90
        6
176
     1
 90
        2
176
     1
 62
     7
176
     1
 90
        5
176
     1
 90
        0
176
     1
 90
        0
176
     1
290
     0
176
     1
 90
       13
176
     1
 40
0.0
176
     1
 90
        0
176
     1
290
     0
176
     1
290
     1
176
     1
290
     1
176
     1
290
     0
176
     1
290
     0
176
     1
290
     0
176
     1
290
     0
176
     1
290
     0
176
     1
290
     0
176
     1
 90
       50
176
     1
 40
0.0
176
     1
 40
1.0
176
     1
 90
        0
176
     1
 62
    18
420
        0
176
     1
 90
       50
176
     1
 90
        3
176
     1
 62
     5
420
      255
176
     1
290
     0
176
     1
 90
       50
176
     1
 90
       50
176
     1
 90
       50
176
     1
290
     0
176
     1
 90
       50
176
     1
 62
   256
176
     0
 40
1.0
176
     0
 90
        2
176
     1
  1
strokes_ogs.tif
176
     1
290
     0
176
     1
 40
1.0
176
     1
 40
1.0
176
     1
  0
VISUALSTYLE
  5
31
102
{ACAD_REACTORS
330
29
102
}
330
29
100
AcDbVisualStyle
  2
Hidden
 70
     6
177
     3
291
     0
 70
    58
 90
        1
176
     1
 90
        2
176
     1
 90
        2
176
     1
 90
        0
176
     1
 40
0.6
176
     1
 40
30.0
176
     1
 62
     7
420
 16777215
176
     1
 90
        2
176
     1
 90
        2
176
     1
 62
     7
176
     1
 62
   257
176
     1
 90
        2
176
     1
 90
        1
176
     1
 40
40.0
176
     1
 90
        0
176
     1
 62
   257
176
     1
 40
1.0
176
     1
 90
        1
176
     1
 90
        6
176
     1
 90
        2
176
     1
 62
     7
176
     1
 90
        3
176
     1
 90
        0
176
     1
 90
        0
176
     1
290
     0
176
     1
 90
        1
176
     1
 40
0.0
176
     1
 90
        0
176
     1
290
     0
176
     1
290
     1
176
     1
290
     1
176
     1
290
     0
176
     1
290
     0
176
     1
290
     0
176
     1
290
     0
176
     1
290
     0
176
     1
290
     0
176
     1
 90
       50
176
     1
 40
0.0
176
     1
 40
1.0
176
     1
 90
        0
176
     1
 62
    18
420
        0
176
     1
 90
       50
176
     1
 90
        3
176
     1
 62
     5
420
      255
176
     1
290
     0
176
     1
 90
       50
176
     1
 90
       50
176
     1
 90
       50
176
     1
290
     0
176
     1
 90
       50
176
     1
 62
   256
176
     0
 40
1.0
176
     0
 90
        2
176
     1
  1
strokes_ogs.tif
176
     1
290
     0
176
     1
 40
1.0
176
     1
 40
1.0
176
     1
  0
VISUALSTYLE
  5
3F
102
{ACAD_REACTORS
330
29
102
}
330
29
100
AcDbVisualStyle
  2
JitterOff
 70
    20
177
     3
291
     1
 70
    58
 90
        2
176
     0
 90
        2
176
     0
 90
        0
176
     0
 90
        0
176
     0
 40
0.6
176
     0
 40
30.0
176
     0
 62
     7
420
 16777215
176
     0
 90
        1
176
     0
 90
        4
176
     0
 62
     7
176
     0
 62
   257
176
     0
 90
        1
176
     0
 90
        1
176
     0
 40
1.0
176
     0
 90
       10
176
     2
 62
     7
176
     0
 40
1.0
176
     0
 90
        1
176
     0
 90
        6
176
     0
 90
        2
176
     0
 62
     7
176
     0
 90
        5
176
     0
 90
        0
176
     0
 90
        0
176
     0
290
     0
176
     0
 90
        1
176
     0
 40
0.0
176
     0
 90
        0
176
     0
290
     0
176
     1
290
     1
176
     1
290
     1
176
     1
290
     0
176
     1
290
     0
176
     1
290
     0
176
     1
290
     0
176
     1
290
     0
176
     1
290
     0
176
     1
 90
       50
176
     0
 40
0.0
176
     0
 40
1.0
176
     0
 90
        0
176
     0
 62
    18
420
        0
176
     0
 90
       50
176
     0
 90
        3
176
     0
 62
     5
420
      255
176
     0
290
     0
176
     1
 90
       50
176
     0
 90
       50
176
     0
 90
       50
176
     0
290
     0
176
     1
 90
       50
176
     0
 62
   256
176
     0
 40
1.0
176
     0
 90
        2
176
     0
  1
strokes_ogs.tif
176
     0
290
     0
176
     1
 40
1.0
176
     0
 40
1.0
176
     0
  0
VISUALSTYLE
  5
37
102
{ACAD_REACTORS
330
29
102
}
330
29
100
AcDbVisualStyle
  2
Linepattern
 70
    14
177
     3
291
     1
 70
    58
 90
        2
176
     1
 90
        2
176
     1
 90
        0
176
     1
 90
        0
176
     1
 40
0.6
176
     1
 40
30.0
176
     1
 62
     7
420
 16777215
176
     1
 90
        1
176
     1
 90
        4
176
     1
 62
     7
176
     1
 62
   257
176
     1
 90
        7
176
     1
 90
        7
176
     1
 40
1.0
176
     1
 90
        8
176
     1
 62
     7
176
     1
 40
1.0
176
     1
 90
        1
176
     1
 90
        6
176
     1
 90
        2
176
     1
 62
     7
176
     1
 90
        5
176
     1
 90
        0
176
     1
 90
        0
176
     1
290
     0
176
     1
 90
        1
176
     1
 40
0.0
176
     1
 90
        0
176
     1
290
     0
176
     1
290
     1
176
     1
290
     1
176
     1
290
     0
176
     1
290
     0
176
     1
290
     0
176
     1
290
     0
176
     1
290
     0
176
     1
290
     0
176
     1
 90
       50
176
     1
 40
0.0
176
     1
 40
1.0
176
     1
 90
        0
176
     1
 62
    18
420
        0
176
     1
 90
       50
176
     1
 90
        3
176
     1
 62
     5
420
      255
176
     1
290
     0
176
     1
 90
       50
176
     1
 90
       50
176
     1
 90
       50
176
     1
290
     0
176
     1
 90
       50
176
     1
 62
   256
176
     0
 40
1.0
176
     0
 90
        2
176
     1
  1
strokes_ogs.tif
176
     1
290
     0
176
     1
 40
1.0
176
     1
 40
1.0
176
     1
  0
VISUALSTYLE
  5
40
102
{ACAD_REACTORS
330
29
102
}
330
29
100
AcDbVisualStyle
  2
OverhangOff
 70
    21
177
     3
291
     1
 70
    58
 90
        2
176
     0
 90
        2
176
     0
 90
        0
176
     0
 90
        0
176
     0
 40
0.6
176
     0
 40
30.0
176
     0
 62
     7
420
 16777215
176
     0
 90
        1
176
     0
 90
        4
176
     0
 62
     7
176
     0
 62
   257
176
     0
 90
        1
176
     0
 90
        1
176
     0
 40
1.0
176
     0
 90
        9
176
     2
 62
     7
176
     0
 40
1.0
176
     0
 90
        1
176
     0
 90
        6
176
     0
 90
        2
176
     0
 62
     7
176
     0
 90
        5
176
     0
 90
        0
176
     0
 90
        0
176
     0
290
     0
176
     0
 90
        1
176
     0
 40
0.0
176
     0
 90
        0
176
     0
290
     0
176
     1
290
     1
176
     1
290
     1
176
     1
290
     0
176
     1
290
     0
176
     1
290
     0
176
     1
290
     0
176
     1
290
     0
176
     1
290
     0
176
     1
 90
       50
176
     0
 40
0.0
176
     0
 40
1.0
176
     0
 90
        0
176
     0
 62
    18
420
        0
176
     0
 90
       50
176
     0
 90
        3
176
     0
 62
     5
420
      255
176
     0
290
     0
176
     1
 90
       50
176
     0
 90
       50
176
     0
 90
       50
176
     0
290
     0
176
     1
 90
       50
176
     0
 62
   256
176
     0
 40
1.0
176
     0
 90
        2
176
     0
  1
strokes_ogs.tif
176
     0
290
     0
176
     1
 40
1.0
176
     0
 40
1.0
176
     0
  0
VISUALSTYLE
  5
33
102
{ACAD_REACTORS
330
29
102
}
330
29
100
AcDbVisualStyle
  2
Realistic
 70
     8
177
     3
291
     0
 70
    58
 90
        2
176
     1
 90
        3
176
     1
 90
        0
176
     1
 90
        2
176
     1
 40
0.6
176
     1
 40
30.0
176
     1
 62
     7
420
 16777215
176
     1
 90
        0
176
     1
 90
        0
176
     1
 62
     7
176
     1
 62
   257
176
     1
 90
        1
176
     1
 90
        1
176
     1
 40
1.0
176
     1
 90
        8
176
     1
 62
   257
176
     1
 40
1.0
176
     1
 90
        1
176
     1
 90
        6
176
     1
 90
        2
176
     1
 62
     7
176
     1
 90
        3
176
     1
 90
        0
176
     1
 90
        0
176
     1
290
     0
176
     1
 90
       13
176
     1
 40
0.0
176
     1
 90
        0
176
     1
290
     0
176
     1
290
     1
176
     1
290
     1
176
     1
290
     0
176
     1
290
     0
176
     1
290
     0
176
     1
290
     0
176
     1
290
     0
176
     1
290
     0
176
     1
 90
       50
176
     1
 40
0.0
176
     1
 40
1.0
176
     1
 90
        0
176
     1
 62
    18
420
        0
176
     1
 90
       50
176
     1
 90
        3
176
     1
 62
     5
420
      255
176
     1
290
     0
176
     1
 90
       50
176
     1
 90
       50
176
     1
 90
       50
176
     1
290
     0
176
     1
 90
       50
176
     1
 62
   256
176
     0
 40
1.0
176
     0
 90
        2
176
     1
  1
strokes_ogs.tif
176
     1
290
     0
176
     1
 40
1.0
176
     1
 40
1.0
176
     1
  0
VISUALSTYLE
  5
3E
102
{ACAD_REACTORS
330
29
102
}
330
29
100
AcDbVisualStyle
  2
Shaded
 70
    27
177
     3
291
     0
 70
    58
 90
        2
176
     1
 90
        2
176
     1
 90
        1
176
     1
 90
        2
176
     1
 40
0.6
176
     1
 40
30.0
176
     1
 62
     7
420
 16777215
176
     1
 90
        0
176
     1
 90
        4
176
     1
 62
     7
176
     1
 62
   257
176
     1
 90
        1
176
     1
 90
        1
176
     1
 40
1.0
176
     1
 90
        8
176
     1
 62
   257
176
     1
 40
1.0
176
     1
 90
        1
176
     1
 90
        6
176
     1
 90
        2
176
     1
 62
     8
420
  7895160
176
     1
 90
        3
176
     1
 90
        0
176
     1
 90
        0
176
     1
290
     0
176
     1
 90
        5
176
     1
 40
0.0
176
     1
 90
        0
176
     1
290
     0
176
     1
290
     1
176
     1
290
     1
176
     1
290
     0
176
     1
290
     0
176
     1
290
     0
176
     1
290
     0
176
     1
290
     0
176
     1
290
     0
176
     1
 90
       50
176
     1
 40
0.0
176
     1
 40
1.0
176
     1
 90
        0
176
     1
 62
    18
420
        0
176
     1
 90
       50
176
     1
 90
        3
176
     1
 62
     5
420
      255
176
     1
290
     0
176
     1
 90
       50
176
     1
 90
       50
176
     1
 90
       50
176
     1
290
     0
176
     1
 90
       50
176
     1
 62
   256
176
     0
 40
1.0
176
     0
 90
        2
176
     1
  1
strokes_ogs.tif
176
     1
290
     0
176
     1
 40
1.0
176
     1
 40
1.0
176
     1
  0
VISUALSTYLE
  5
3D
102
{ACAD_REACTORS
330
29
102
}
330
29
100
AcDbVisualStyle
  2
Shaded with edges
 70
    26
177
     3
291
     0
 70
    58
 90
        2
176
     1
 90
        2
176
     1
 90
        1
176
     1
 90
        2
176
     1
 40
0.6
176
     1
 40
30.0
176
     1
 62
     7
420
 16777215
176
     1
 90
        1
176
     1
 90
        2
176
     1
 62
     7
176
     1
 62
   257
176
     1
 90
        2
176
     1
 90
        1
176
     1
 40
1.0
176
     1
 90
        8
176
     1
 62
   257
176
     1
 40
1.0
176
     1
 90
        1
176
     1
 90
        6
176
     1
 90
        2
176
     1
 62
     7
176
     1
 90
        3
176
     1
 90
        0
176
     1
 90
        0
176
     1
290
     0
176
     1
 90
        5
176
     1
 40
0.0
176
     1
 90
        0
176
     1
290
     0
176
     1
290
     1
176
     1
290
     1
176
     1
290
     0
176
     1
290
     0
176
     1
290
     0
176
     1
290
     0
176
     1
290
     0
176
     1
290
     0
176
     1
 90
       50
176
     1
 40
0.0
176
     1
 40
1.0
176
     1
 90
        0
176
     1
 62
    18
420
        0
176
     1
 90
       50
176
     1
 90
        3
176
     1
 62
     5
420
      255
176
     1
290
     0
176
     1
 90
       50
176
     1
 90
       50
176
     1
 90
       50
176
     1
290
     0
176
     1
 90
       50
176
     1
 62
   256
176
     0
 40
1.0
176
     0
 90
        2
176
     1
  1
strokes_ogs.tif
176
     1
290
     0
176
     1
 40
1.0
176
     1
 40
1.0
176
     1
  0
VISUALSTYLE
  5
3A
102
{ACAD_REACTORS
330
29
102
}
330
29
100
AcDbVisualStyle
  2
Shades of Gray
 70
    23
177
     3
291
     0
 70
    58
 90
        2
176
     1
 90
        2
176
     1
 90
        3
176
     1
 90
        0
176
     1
 40
0.6
176
     1
 40
30.0
176
     1
 62
     7
420
 16777215
176
     1
 90
        2
176
     1
 90
        2
176
     1
 62
     7
176
     1
 62
     7
176
     1
 90
        1
176
     1
 90
        1
176
     1
 40
40.0
176
     1
 90
        8
176
     1
 62
     7
176
     1
 40
1.0
176
     1
 90
        1
176
     1
 90
        6
176
     1
 90
        2
176
     1
 62
     7
176
     1
 90
        3
176
     1
 90
        0
176
     1
 90
        0
176
     1
290
     0
176
     1
 90
        1
176
     1
 40
0.0
176
     1
 90
        0
176
     1
290
     0
176
     1
290
     1
176
     1
290
     1
176
     1
290
     0
176
     1
290
     0
176
     1
290
     0
176
     1
290
     0
176
     1
290
     0
176
     1
290
     0
176
     1
 90
       50
176
     1
 40
0.0
176
     1
 40
1.0
176
     1
 90
        0
176
     1
 62
    18
420
        0
176
     1
 90
       50
176
     1
 90
        3
176
     1
 62
     5
420
      255
176
     1
290
     0
176
     1
 90
       50
176
     1
 90
       50
176
     1
 90
       50
176
     1
290
     0
176
     1
 90
       50
176
     1
 62
   256
176
     0
 40
1.0
176
     0
 90
        2
176
     1
  1
strokes_ogs.tif
176
     1
290
     0
176
     1
 40
1.0
176
     1
 40
1.0
176
     1
  0
VISUALSTYLE
  5
3B
102
{ACAD_REACTORS
330
29
102
}
330
29
100
AcDbVisualStyle
  2
Sketchy
 70
    24
177
     3
291
     0
 70
    58
 90
        1
176
     1
 90
        2
176
     1
 90
        2
176
     1
 90
        0
176
     1
 40
0.6
176
     1
 40
30.0
176
     1
 62
     7
420
 16777215
176
     1
 90
        2
176
     1
 90
        2
176
     1
 62
     7
176
     1
 62
     7
176
     1
 90
        1
176
     1
 90
        1
176
     1
 40
40.0
176
     1
 90
       11
176
     1
 62
     7
176
     1
 40
1.0
176
     1
 90
        1
176
     1
 90
        6
176
     1
 90
        2
176
     1
 62
     7
176
     1
 90
        6
176
     1
 90
        0
176
     1
 90
        0
176
     1
290
     0
176
     1
 90
        1
176
     1
 40
0.0
176
     1
 90
        0
176
     1
290
     0
176
     1
290
     1
176
     1
290
     1
176
     1
290
     0
176
     1
290
     0
176
     1
290
     0
176
     1
290
     0
176
     1
290
     0
176
     1
290
     0
176
     1
 90
       50
176
     1
 40
0.0
176
     1
 40
1.0
176
     1
 90
        0
176
     1
 62
    18
420
        0
176
     1
 90
       50
176
     1
 90
        3
176
     1
 62
     5
420
      255
176
     1
290
     0
176
     1
 90
       50
176
     1
 90
       50
176
     1
 90
       50
176
     1
290
     0
176
     1
 90
       50
176
     1
 62
   256
176
     0
 40
1.0
176
     0
 90
        2
176
     1
  1
strokes_ogs.tif
176
     1
290
     0
176
     1
 40
1.0
176
     1
 40
1.0
176
     1
  0
VISUALSTYLE
  5
36
102
{ACAD_REACTORS
330
29
102
}
330
29
100
AcDbVisualStyle
  2
Thicken
 70
    13
177
     3
291
     1
 70
    58
 90
        2
176
     1
 90
        2
176
     1
 90
        0
176
     1
 90
        0
176
     1
 40
0.6
176
     1
 40
30.0
176
     1
 62
     7
420
 16777215
176
     1
 90
        1
176
     1
 90
        4
176
     1
 62
     7
176
     1
 62
   257
176
     1
 90
        1
176
     1
 90
        1
176
     1
 40
1.0
176
     1
 90
       12
176
     1
 62
     7
176
     1
 40
1.0
176
     1
 90
        1
176
     1
 90
        6
176
     1
 90
        2
176
     1
 62
     7
176
     1
 90
        5
176
     1
 90
        0
176
     1
 90
        0
176
     1
290
     0
176
     1
 90
        1
176
     1
 40
0.0
176
     1
 90
        0
176
     1
290
     0
176
     1
290
     1
176
     1
290
     1
176
     1
290
     0
176
     1
290
     0
176
     1
290
     0
176
     1
290
     0
176
     1
290
     0
176
     1
290
     0
176
     1
 90
       50
176
     1
 40
0.0
176
     1
 40
1.0
176
     1
 90
        0
176
     1
 62
    18
420
        0
176
     1
 90
       50
176
     1
 90
        3
176
     1
 62
     5
420
      255
176
     1
290
     0
176
     1
 90
       50
176
     1
 90
       50
176
     1
 90
       50
176
     1
290
     0
176
     1
 90
       50
176
     1
 62
   256
176
     0
 40
1.0
176
     0
 90
        2
176
     1
  1
strokes_ogs.tif
176
     1
290
     0
176
     1
 40
1.0
176
     1
 40
1.0
176
     1
  0
VISUALSTYLE
  5
30
102
{ACAD_REACTORS
330
29
102
}
330
29
100
AcDbVisualStyle
  2
Wireframe
 70
     5
177
     3
291
     0
 70
    58
 90
        0
176
     1
 90
        2
176
     1
 90
        0
176
     1
 90
        0
176
     1
 40
0.6
176
     1
 40
30.0
176
     1
 62
     7
420
 16777215
176
     1
 90
        1
176
     1
 90
        4
176
     1
 62
     7
176
     1
 62
   257
176
     1
 90
        1
176
     1
 90
        1
176
     1
 40
1.0
176
     1
 90
        0
176
     1
 62
   257
176
     1
 40
1.0
176
     1
 90
        1
176
     1
 90
        6
176
     1
 90
        2
176
     1
 62
     7
176
     1
 90
        3
176
     1
 90
        0
176
     1
 90
        0
176
     1
290
     0
176
     1
 90
        1
176
     1
 40
0.0
176
     1
 90
        0
176
     1
290
     0
176
     1
290
     1
176
     1
290
     1
176
     1
290
     0
176
     1
290
     0
176
     1
290
     0
176
     1
290
     0
176
     1
290
     0
176
     1
290
     0
176
     1
 90
       50
176
     1
 40
0.0
176
     1
 40
1.0
176
     1
 90
        0
176
     1
 62
    18
420
        0
176
     1
 90
       50
176
     1
 90
        3
176
     1
 62
     5
420
      255
176
     1
290
     0
176
     1
 90
       50
176
     1
 90
       50
176
     1
 90
       50
176
     1
290
     0
176
     1
 90
       50
176
     1
 62
   256
176
     0
 40
1.0
176
     0
 90
        2
176
     1
  1
strokes_ogs.tif
176
     1
290
     0
176
     1
 40
1.0
176
     1
 40
1.0
176
     1
  0
VISUALSTYLE
  5
3C
102
{ACAD_REACTORS
330
29
102
}
330
29
100
AcDbVisualStyle
  2
X-Ray
 70
    25
177
     3
291
     0
 70
    58
 90
        2
176
     1
 90
        2
176
     1
 90
        1
176
     1
 90
        1
176
     1
 40
0.5
176
     1
 40
30.0
176
     1
 62
     7
420
 16777215
176
     1
 90
        1
176
     1
 90
        0
176
     1
 62
     7
176
     1
 62
   257
176
     1
 90
        1
176
     1
 90
        1
176
     1
 40
1.0
176
     1
 90
        8
176
     1
 62
     7
176
     1
 40
1.0
176
     1
 90
        1
176
     1
 90
        6
176
     1
 90
        2
176
     1
 62
     7
176
     1
 90
        3
176
     1
 90
        0
176
     1
 90
        0
176
     1
290
     0
176
     1
 90
       13
176
     1
 40
0.0
176
     1
 90
        0
176
     1
290
     0
176
     1
290
     1
176
     1
290
     1
176
     1
290
     0
176
     1
290
     0
176
     1
290
     0
176
     1
290
     0
176
     1
290
     0
176
     1
290
     0
176
     1
 90
       50
176
     1
 40
0.0
176
     1
 40
1.0
176
     1
 90
        0
176
     1
 62
    18
420
        0
176
     1
 90
       50
176
     1
 90
        3
176
     1
 62
     5
420
      255
176
     1
290
     0
176
     1
 90
       50
176
     1
 90
       50
176
     1
 90
       50
176
     1
290
     0
176
     1
 90
       50
176
     1
 62
   256
176
     0
 40
1.0
176
     0
 90
        2
176
     1
  1
strokes_ogs.tif
176
     1
290
     0
176
     1
 40
1.0
176
     1
 40
1.0
176
     1
  0
DICTIONARYVAR
  5
2F2
102
{ACAD_REACTORS
330
2EC
102
}
330
2EC
100
DictionaryVariables
280
     0
  1
1:1
  0
DICTIONARYVAR
  5
2EE
102
{ACAD_REACTORS
330
2EC
102
}
330
2EC
100
DictionaryVariables
280
     0
  1
STANDARD
  0
DICTIONARYVAR
  5
2ED
102
{ACAD_REACTORS
330
2EC
102
}
330
2EC
100
DictionaryVariables
280
     0
  1
STANDARD
  0
DICTIONARYVAR
  5
2EF
102
{ACAD_REACTORS
330
2EC
102
}
330
2EC
100
DictionaryVariables
280
     0
  1
Imperial24
  0
DICTIONARYVAR
  5
2F0
102
{ACAD_REACTORS
330
2EC
102
}
330
2EC
100
DictionaryVariables
280
     0
  1
Imperial24
  0
DICTIONARYVAR
  5
2F4
102
{ACAD_REACTORS
330
2EC
102
}
330
2EC
100
DictionaryVariables
280
     0
  1
1
  0
DICTIONARYVAR
  5
2F5
102
{ACAD_REACTORS
330
2EC
102
}
330
2EC
100
DictionaryVariables
280
     0
  1
15
  0
DICTIONARYVAR
  5
2F3
102
{ACAD_REACTORS
330
2EC
102
}
330
2EC
100
DictionaryVariables
280
     0
  1
0
  0
DICTIONARYVAR
  5
2F1
102
{ACAD_REACTORS
330
2EC
102
}
330
2EC
100
DictionaryVariables
280
     0
  1
0
  0
DICTIONARY
  5
1A
330
19
100
AcDbDictionary
280
     1
281
     1
  3
BUMPTILE
360
1C
  3
DIFFUSETILE
360
1B
  3
OPACITYTILE
360
1F
  3
REFLECTIONTILE
360
1E
  3
REFRACTIONTILE
360
20
  3
SPECULARTILE
360
1D
  0
DICTIONARY
  5
12
330
11
100
AcDbDictionary
280
     1
281
     1
  3
BUMPTILE
360
14
  3
DIFFUSETILE
360
13
  3
OPACITYTILE
360
17
  3
REFLECTIONTILE
360
16
  3
REFRACTIONTILE
360
18
  3
SPECULARTILE
360
15
  0
DICTIONARY
  5
22
330
21
100
AcDbDictionary
280
     1
281
     1
  3
BUMPTILE
360
24
  3
DIFFUSETILE
360
23
  3
OPACITYTILE
360
27
  3
REFLECTIONTILE
360
26
  3
REFRACTIONTILE
360
28
  3
SPECULARTILE
360
25
  0
DICTIONARY
  5
301
330
64
100
AcDbDictionary
280
     1
281
     1
  3
ACAD_ROUNDTRIP_2008_TABLESTYLE_CELLSTYLEMAP
360
302
  0
XRECORD
  5
1C
102
{ACAD_REACTORS
330
1A
102
}
330
1A
100
AcDbXrecord
280
     1
270
     1
271
     1
  0
XRECORD
  5
1B
102
{ACAD_REACTORS
330
1A
102
}
330
1A
100
AcDbXrecord
280
     1
270
     1
271
     1
  0
XRECORD
  5
1F
102
{ACAD_REACTORS
330
1A
102
}
330
1A
100
AcDbXrecord
280
     1
270
     1
271
     1
  0
XRECORD
  5
1E
102
{ACAD_REACTORS
330
1A
102
}
330
1A
100
AcDbXrecord
280
     1
270
     1
271
     1
  0
XRECORD
  5
20
102
{ACAD_REACTORS
330
1A
102
}
330
1A
100
AcDbXrecord
280
     1
270
     1
271
     1
  0
XRECORD
  5
1D
102
{ACAD_REACTORS
330
1A
102
}
330
1A
100
AcDbXrecord
280
     1
270
     1
271
     1
  0
XRECORD
  5
14
102
{ACAD_REACTORS
330
12
102
}
330
12
100
AcDbXrecord
280
     1
270
     1
271
     1
  0
XRECORD
  5
13
102
{ACAD_REACTORS
330
12
102
}
330
12
100
AcDbXrecord
280
     1
270
     1
271
     1
  0
XRECORD
  5
17
102
{ACAD_REACTORS
330
12
102
}
330
12
100
AcDbXrecord
280
     1
270
     1
271
     1
  0
XRECORD
  5
16
102
{ACAD_REACTORS
330
12
102
}
330
12
100
AcDbXrecord
280
     1
270
     1
271
     1
  0
XRECORD
  5
18
102
{ACAD_REACTORS
330
12
102
}
330
12
100
AcDbXrecord
280
     1
270
     1
271
     1
  0
XRECORD
  5
15
102
{ACAD_REACTORS
330
12
102
}
330
12
100
AcDbXrecord
280
     1
270
     1
271
     1
  0
XRECORD
  5
24
102
{ACAD_REACTORS
330
22
102
}
330
22
100
AcDbXrecord
280
     1
270
     1
271
     1
  0
XRECORD
  5
23
102
{ACAD_REACTORS
330
22
102
}
330
22
100
AcDbXrecord
280
     1
270
     1
271
     1
  0
XRECORD
  5
27
102
{ACAD_REACTORS
330
22
102
}
330
22
100
AcDbXrecord
280
     1
270
     1
271
     1
  0
XRECORD
  5
26
102
{ACAD_REACTORS
330
22
102
}
330
22
100
AcDbXrecord
280
     1
270
     1
271
     1
  0
XRECORD
  5
28
102
{ACAD_REACTORS
330
22
102
}
330
22
100
AcDbXrecord
280
     1
270
     1
271
     1
  0
XRECORD
  5
25
102
{ACAD_REACTORS
330
22
102
}
330
22
100
AcDbXrecord
280
     1
270
     1
271
     1
  0
CELLSTYLEMAP
  5
302
102
{ACAD_REACTORS
330
301
102
}
330
301
100
AcDbCellStyleMap
 90
        3
300
CELLSTYLE
  1
TABLEFORMAT_BEGIN
 90
        5
170
     1
 91
        0
 92
    32768
 62
   257
 93
        1
300
CONTENTFORMAT
  1
CONTENTFORMAT_BEGIN
 90
        0
 91
        0
 92
      512
 93
        0
300

 40
0.0
140
1.0
 94
        5
 62
     0
340
55
144
0.25
309
CONTENTFORMAT_END
171
     0
 94
        0
309
TABLEFORMAT_END
  1
CELLSTYLE_BEGIN
 90
        1
 91
        1
300
_TITLE
309
CELLSTYLE_END
300
CELLSTYLE
  1
TABLEFORMAT_BEGIN
 90
        5
170
     1
 91
        0
 92
        0
 62
   257
 93
        1
300
CONTENTFORMAT
  1
CONTENTFORMAT_BEGIN
 90
        0
 91
        0
 92
      512
 93
        0
300

 40
0.0
140
1.0
 94
        5
 62
     0
340
55
144
0.18
309
CONTENTFORMAT_END
171
     0
 94
        0
309
TABLEFORMAT_END
  1
CELLSTYLE_BEGIN
 90
        2
 91
        1
300
_HEADER
309
CELLSTYLE_END
300
CELLSTYLE
  1
TABLEFORMAT_BEGIN
 90
        5
170
     1
 91
        0
 92
        0
 62
   257
 93
        1
300
CONTENTFORMAT
  1
CONTENTFORMAT_BEGIN
 90
        0
 91
        0
 92
      512
 93
        0
300

 40
0.0
140
1.0
 94
        2
 62
     0
340
55
144
0.18
309
CONTENTFORMAT_END
171
     0
 94
        0
309
TABLEFORMAT_END
  1
CELLSTYLE_BEGIN
 90
        3
 91
        2
300
_DATA
309
CELLSTYLE_END
  0
ENDSEC
  0
SECTION
  2
ACDSDATA
 70
     2
 71
     8
  0
ACDSSCHEMA
 90
        0
  1
AcDb_Thumbnail_Schema
  2
AcDbDs::ID
280
    10
 91
        8
  2
Thumbnail_Data
280
    15
 91
        0
101
ACDSRECORD
 95
        0
 90
        1
  2
AcDbDs::TreatedAsObjectData
280
     1
291
     1
101
ACDSRECORD
 95
        0
 90
        2
  2
AcDbDs::Legacy
280
     1
291
     1
101
ACDSRECORD
  1
AcDbDs::ID
 90
        3
  2
AcDs:Indexable
280
     1
291
     1
101
ACDSRECORD
  1
AcDbDs::ID
 90
        4
  2
AcDbDs::HandleAttribute
280
     7
282
     1
  0
ACDSSCHEMA
 90
        1
  1
AcDbDs::TreatedAsObjectDataSchema
  2
AcDbDs::TreatedAsObjectData
280
     1
 91
        0
  0
ACDSSCHEMA
 90
        2
  1
AcDbDs::LegacySchema
  2
AcDbDs::Legacy
280
     1
 91
        0
  0
ACDSSCHEMA
 90
        3
  1
AcDbDs::IndexedPropertySchema
  2
AcDs:Indexable
280
     1
 91
        0
  0
ACDSSCHEMA
 90
        4
  1
AcDbDs::HandleAttributeSchema
  2
AcDbDs::HandleAttribute
280
     7
 91
        1
284
     1
  0
ACDSRECORD
 90
        0
  2
AcDbDs::ID
280
    10
320
72
  2
Thumbnail_Data
280
    15
 94
     1085
310
89504E470D0A1A0A0000000D4948445200000100000000B208030000009AD9E19E00000300504C5445212830FFFFFF2128300000000000000000000000000000000000000000000000000000330000660000990000CC0000FF0033000033330033660033990033CC0033FF0066000066330066660066990066CC0066FF0099
310
000099330099660099990099CC0099FF00CC0000CC3300CC6600CC9900CCCC00CCFF00FF0000FF3300FF6600FF9900FFCC00FFFF3300003300333300663300993300CC3300FF3333003333333333663333993333CC3333FF3366003366333366663366993366CC3366FF3399003399333399663399993399CC3399FF33CC00
310
33CC3333CC6633CC9933CCCC33CCFF33FF0033FF3333FF6633FF9933FFCC33FFFF6600006600336600666600996600CC6600FF6633006633336633666633996633CC6633FF6666006666336666666666996666CC6666FF6699006699336699666699996699CC6699FF66CC0066CC3366CC6666CC9966CCCC66CCFF66FF0066
310
FF3366FF6666FF9966FFCC66FFFF9900009900339900669900999900CC9900FF9933009933339933669933999933CC9933FF9966009966339966669966999966CC9966FF9999009999339999669999999999CC9999FF99CC0099CC3399CC6699CC9999CCCC99CCFF99FF0099FF3399FF6699FF9999FFCC99FFFFCC0000CC00
310
33CC0066CC0099CC00CCCC00FFCC3300CC3333CC3366CC3399CC33CCCC33FFCC6600CC6633CC6666CC6699CC66CCCC66FFCC9900CC9933CC9966CC9999CC99CCCC99FFCCCC00CCCC33CCCC66CCCC99CCCCCCCCCCFFCCFF00CCFF33CCFF66CCFF99CCFFCCCCFFFFFF0000FF0033FF0066FF0099FF00CCFF00FFFF3300FF3333
310
FF3366FF3399FF33CCFF33FFFF6600FF6633FF6666FF6699FF66CCFF66FFFF9900FF9933FF9966FF9999FF99CCFF99FFFFCC00FFCC33FFCC66FFCC99FFCCCCFFCCFFFFFF00FFFF33FFFF66FFFF99FFFFCCFFFFFF0000000D0D0D1A1A1A2828283535354343435050505D5D5D6B6B6B787878868686939393A1A1A1AEAEAEBB
310
BBBBC9C9C9D6D6D6E4E4E4F1F1F1FFFFFF0000000000000000000000000000000000000000000000000000000000002E4550F1000000F84944415478DAEDD9310EC2400C0440FFFFBFEE114A0812E412093AEF0CA28206B3AC4F4715000000000000000000000000FFE8A75A3CF7D7660F601BC2E9731FCFF001F4753CEEDE
310
32230237D331003F81F101E86FEFF12494609F0F26A704970348E980E004ACBE631DF04A408777C0F690001D600B3807CC4EC0F95138E71C70391E1722EE0324607800C22F455D8BBB16B7056C81F02DE024A80374800ED001AB0474780784DC0A07274007380738073807E8001DA00374407007DC2B6A7A088E3F023EAEC5
310
C33E7E55E008AE3E65C404FAF71521013AC01690001D600B48800EB0050000000000000000000000000000000000383C00DBE34DA7622797A40000000049454E44AE426082
  0
ENDSEC
  0
EOF
